<svg width="103.5" height="39.75" viewBox="0 0 138 53" fill="none" xmlns="http://www.w3.org/2000/svg">
<path fill-rule="evenodd" clip-rule="evenodd" d="M43.6323 6.88338L43.6323 26.4778L43.6344 26.7172L43.6342 26.9333L43.6318 27.1494L43.6273 27.3652L43.6207 27.5809L43.612 27.7963L43.6012 28.0116L43.5883 28.2266L43.5732 28.4414L43.556 28.6559L43.5368 28.8701L43.5154 29.0839L43.492 29.2975L43.4665 29.5106L43.4389 29.7233L43.4092 29.9357L43.3775 30.1477L43.3436 30.3591L43.3078 30.5701L43.2698 30.7806L43.2299 30.9906L43.1879 31.2001L43.1438 31.409L43.0977 31.6174L43.0496 31.8251L42.9995 32.0323L42.9474 32.2388L42.8933 32.4446L42.8372 32.6498L42.7791 32.8542L42.719 33.058L42.657 33.261L42.5929 33.4633L42.527 33.6648L42.4591 33.8655L42.3893 34.0653L42.3175 34.2644L42.2439 34.4626L42.1683 34.66L42.0909 34.8564L42.0115 35.052L41.9303 35.2465L41.8472 35.4402L41.7622 35.6329L41.6755 35.8246L41.5868 36.0153L41.4965 36.2048L41.4041 36.3937L41.3101 36.5812L41.2143 36.7677L41.1167 36.953L41.0173 37.1374L40.9162 37.3206L40.8132 37.5028L40.7088 37.6834L40.6023 37.8634L40.4944 38.0417L40.3848 38.219L40.2732 38.3953L40.1603 38.57L40.0457 38.7434L39.9293 38.9158L39.8113 39.0868L39.6918 39.2565L39.5706 39.4249L39.4479 39.5919L39.3235 39.7576L39.1978 39.9218L39.0702 40.0849L38.9415 40.2462L38.811 40.4064L38.679 40.5651L38.5457 40.7222L38.4108 40.878L38.2745 41.0323L38.1366 41.1853L37.9976 41.3364L37.857 41.4863L37.7151 41.6344L37.5717 41.7812L37.4271 41.9264L37.2811 42.0699L37.1336 42.2121L36.9851 42.3524L36.8352 42.4912L36.6839 42.6284L36.5315 42.764L36.3777 42.898L36.2229 43.0302L36.0668 43.1609L35.9094 43.2899L35.7509 43.4171L35.5914 43.5426L35.4306 43.6665L35.2687 43.7887L35.1055 43.9092L34.9417 44.0277L34.7765 44.1446L34.6102 44.2599L34.4432 44.3731L34.2749 44.4848L34.1056 44.5947L33.9354 44.7027L33.7642 44.809L33.5923 44.9133L33.4191 45.016L33.2455 45.1166L33.0704 45.2157L32.8951 45.3126L32.7184 45.408L32.5409 45.5014L32.3629 45.5928L32.1843 45.6823L32.0043 45.7702L31.824 45.856L31.6429 45.9399L31.4609 46.022L31.2783 46.1022L31.0949 46.1805L30.9112 46.2567L30.7268 46.331L30.5413 46.4036L30.3559 46.474L30.1694 46.5427L29.9825 46.6093L29.7953 46.6739L29.6072 46.7367L29.4189 46.7974L29.2298 46.8563L29.0407 46.9131L28.8506 46.968L28.6607 47.0209L28.4699 47.0718L28.2789 47.1208L28.0872 47.1678L27.8958 47.2127L27.7038 47.2557L27.5114 47.2967L27.3188 47.3358L27.1262 47.3727L26.9328 47.4078L26.7393 47.4409L26.5461 47.4719L26.3521 47.501L26.1582 47.5281L25.9645 47.5531L25.77 47.5762L25.576 47.5972L25.3814 47.6163L25.1872 47.6334L24.9929 47.6484L24.7982 47.6615L24.6037 47.6726L24.4093 47.6817L24.2149 47.6888L24.0205 47.694L23.826 47.6971L23.6317 47.6982L23.4379 47.6974L23.2439 47.6946L23.0501 47.6898L22.8563 47.683L22.6631 47.6743L22.4697 47.6635L22.2766 47.6508L22.0841 47.6362L21.8914 47.6196L21.699 47.601L21.5076 47.5806L21.3156 47.5581L21.1243 47.5337L20.9335 47.5073L20.743 47.4791L20.5532 47.4489L20.3632 47.4167L20.174 47.3827L19.9852 47.3468L19.797 47.309L19.6089 47.2692L19.4218 47.2276L19.2351 47.1841L19.0485 47.1386L18.8631 47.0914L18.6779 47.0422L18.4936 46.9912L18.3098 46.9384L18.1264 46.8837L17.9436 46.8271L17.762 46.7688L17.5808 46.7087L17.4001 46.6466L17.2205 46.5829L17.0413 46.5172L16.8632 46.4499L16.6856 46.3807L16.509 46.3098L16.3332 46.2372L16.1579 46.1627L15.9837 46.0865L15.8103 46.0086L15.6381 45.9291L15.4663 45.8477L15.2957 45.7647L15.126 45.68L14.9571 45.5936L14.7891 45.5055L14.6226 45.4159L14.4563 45.3243L14.2919 45.2316L14.1278 45.1368L13.9649 45.0406L13.8034 44.9429L13.6425 44.8433L13.483 44.7424L13.3243 44.6397L13.1671 44.5358L13.0107 44.43L12.8557 44.3229L12.7014 44.214L12.549 44.1041L12.3971 43.9922L12.2468 43.8792L12.0973 43.7644L11.9497 43.6486L11.8027 43.5309L11.6571 43.4119L11.5129 43.2916L11.3702 43.1701L11.2284 43.0468L11.0878 42.9222L10.949 42.7966L10.8111 42.6692L10.6749 42.5409L10.5397 42.411L10.4061 42.28L10.2738 42.1475L10.143 42.014L10.0133 41.8789L9.88546 41.743L9.75864 41.6055L9.63345 41.467L9.50948 41.3271L9.38735 41.1864L9.26637 41.0442L9.14709 40.9011L9.02909 40.7567L8.91285 40.6115L8.79796 40.4649L8.68432 40.317L8.57255 40.1684L8.46238 40.0189L8.35348 39.868L8.24646 39.7165L8.14072 39.5636L8.03665 39.4099L7.9339 39.2548L7.83333 39.0997L7.7338 38.9428L7.63623 38.7856L7.54013 38.6272L7.44575 38.4681L7.35278 38.3078L7.26169 38.147L7.17198 37.985L7.08417 37.8226L6.9979 37.6592L6.91341 37.4952L6.83041 37.3301L6.74916 37.1645L6.66962 36.9981L6.59177 36.8311L6.51574 36.6637L6.44117 36.4951L6.36837 36.3259L6.29743 36.1565L6.22806 35.9861L6.16046 35.8152L6.09451 35.6436L6.03047 35.4719L5.96811 35.2995L5.90728 35.1259L5.84848 34.9527L5.7912 34.7784L5.73592 34.6043L5.68212 34.4289L5.63022 34.2536L5.58009 34.0778L5.53178 33.9019L5.48507 33.725L5.44019 33.548L5.39715 33.3709L5.35588 33.1935L5.31631 33.0154L5.27856 32.8373L5.24262 32.659L5.20838 32.4801L5.17594 32.301L5.14536 32.1222L5.1165 31.9428L5.08946 31.7635L5.06415 31.5836L5.04069 31.4041L5.01895 31.2239L4.99905 31.0442L4.98087 30.8638L4.96454 30.6839L4.94999 30.504L4.93718 30.3235L4.92617 30.1432L4.91695 29.9631L4.90952 29.7832L4.90384 29.6027L4.89995 29.4228L4.89783 29.2432L4.89749 29.0631L4.89892 28.8831L4.9021 28.7039L4.90706 28.5244L4.91379 28.345L4.92226 28.1661L4.9325 27.9873L4.94449 27.8085L4.95822 27.6302L4.97371 27.452L4.99094 27.2741L5.00988 27.0969L5.0306 26.9194L5.05301 26.7427L5.07716 26.5662L5.10305 26.3899L5.13064 26.2141L5.15991 26.039L5.19094 25.8638L5.22363 25.6895L5.25805 25.5153L5.29406 25.3421L5.33192 25.1686L5.37131 24.9963L5.41236 24.8245L5.45523 24.6526L5.49965 24.4818L5.54571 24.3115L5.59351 24.1415L5.64277 23.9727L5.69384 23.8039L5.74643 23.6361L5.80068 23.4688L5.85652 23.3022L5.91389 23.1366L5.97304 22.9711L6.03357 22.8069L6.09571 22.6433L6.1596 22.48L6.22475 22.3182L6.2917 22.1566L6.3601 21.996L6.42999 21.8363L6.50157 21.6771L6.5744 21.5192L6.64895 21.3618L6.72488 21.2055L6.80232 21.0501L6.88124 20.8955L6.96165 20.7417L7.04354 20.5889L7.12674 20.4373L7.2115 20.2864L7.29764 20.1365L7.38521 19.9877L7.47414 19.8398L7.56458 19.6929L7.65617 19.5473L7.74938 19.4023L7.84367 19.2588L7.93971 19.1158L8.03662 18.9746L8.13517 18.834L8.23501 18.6945L8.33592 18.5565L8.43827 18.4194L8.54206 18.2832L8.64689 18.1485L8.75289 18.015L8.86036 17.8825L8.96891 17.7513L9.07886 17.6211L9.1897 17.4924L9.30208 17.3646L9.41534 17.2384L9.52984 17.1133L9.64552 16.9894L9.76237 16.8668L9.88025 16.7456L9.99922 16.6257L10.1196 16.5068L10.2406 16.3895L10.3628 16.2736L10.4863 16.1587L10.6107 16.0453L10.7359 15.9335L10.8625 15.8226L10.9897 15.7135L11.1183 15.6054L11.2474 15.4992L11.3778 15.394L11.5091 15.2902L11.6411 15.1881L11.7743 15.0871L11.9083 14.9877L12.043 14.8898L12.1788 14.7932L12.3153 14.6982L12.4527 14.6046L12.5908 14.5125L12.7297 14.4219L12.8696 14.3327L13.0102 14.245L13.1515 14.1589L13.2935 14.0743L13.4365 13.991L13.5798 13.9095L13.724 13.8295L13.8689 13.7509L14.0145 13.6738L14.1606 13.5984L14.3074 13.5245L14.4548 13.4522L14.6028 13.3814L14.7516 13.3121L14.9007 13.2445L15.0504 13.1784L15.2008 13.1139L15.3515 13.051L15.5028 12.9896L15.6546 12.9299L15.807 12.8717L15.9596 12.8152L16.1128 12.7603L16.2664 12.707L16.4205 12.6552L16.5748 12.6051L16.7296 12.5566L16.8847 12.5098L17.0402 12.4645L17.196 12.4209L17.3521 12.3789L17.5085 12.3385L17.6652 12.2997L17.8221 12.2626L17.9793 12.2271L18.1368 12.1933L18.2944 12.1611L18.4522 12.1305L18.6102 12.1015L18.7685 12.0742L18.9267 12.0486L19.0852 12.0245L19.2438 12.0021L19.4025 11.9814L19.5612 11.9622L19.7201 11.9448L19.8789 11.9289L20.0378 11.9147L20.1968 11.9021L20.3557 11.8912L20.5146 11.8819L20.6735 11.8742L20.8323 11.8681L20.9911 11.8637L21.1498 11.8609L21.3084 11.8597L21.4669 11.8602L21.6253 11.8623L21.7835 11.8659L21.9416 11.8712L22.0995 11.8781L22.2572 11.8867L22.4147 11.8968L22.572 11.9085L22.729 11.9218L22.8858 11.9368L23.0424 11.9533L23.1986 11.9714L23.3545 11.9911L23.5101 12.0123L23.6655 12.0351L23.8204 12.0595L23.975 12.0855L24.1292 12.113L24.2831 12.1421L24.4365 12.1728L24.5894 12.2049L24.7421 12.2387L24.8941 12.2739L25.0458 12.3107L25.197 12.349L25.3477 12.3888L25.4978 12.4301L25.6474 12.4729L25.7966 12.5173L25.9451 12.5631L26.0932 12.6104L26.2405 12.6591L26.3874 12.7094L26.5336 12.7611L26.6791 12.8142L26.8241 12.8688L26.9684 12.9248L27.112 12.9823L27.2549 13.0412L27.3972 13.1015L27.5388 13.1633L27.6796 13.2264L27.8198 13.2909L27.9591 13.3567L28.0977 13.424L28.2356 13.4927L28.3725 13.5626L28.5089 13.634L28.6442 13.7066L28.7789 13.7806L28.9127 13.8559L29.0456 13.9325L29.1778 14.0105L29.3089 14.0896L29.4392 14.1701L29.5687 14.2519L29.6972 14.3349L29.8248 14.4191L29.9515 14.5047L30.0772 14.5914L30.202 14.6793L30.3259 14.7685L30.4486 14.8588L30.5705 14.9503L30.6914 15.0431L30.8113 15.1369L30.9301 15.232L31.0479 15.3281L31.1646 15.4254L31.2803 15.5238L31.395 15.6233L31.5085 15.7239L31.6211 15.8256L31.7325 15.9283L31.8428 16.0321L31.9519 16.137L32.06 16.2428L32.1669 16.3497L32.2728 16.4577L32.3774 16.5666L32.4809 16.6765L32.5832 16.7873L32.6844 16.8991L32.7844 17.0119L32.8831 17.1255L32.9808 17.2403L33.0771 17.3557L33.1723 17.4721L33.2662 17.5894L33.359 17.7076L33.4505 17.8266L33.5407 17.9465L33.6297 18.0671L33.7174 18.1886L33.8038 18.3108L33.889 18.434L33.9729 18.5578L34.0555 18.6824L34.1368 18.8077L34.2168 18.9338L34.2955 19.0606L34.3729 19.1881L34.449 19.3163L34.5237 19.4452L34.5971 19.5746L34.6692 19.7048L34.7399 19.8356L34.8093 19.967L34.8774 20.099L34.9441 20.2316L35.0094 20.3648L35.0734 20.4986L35.1359 20.6327L35.1972 20.7676L35.257 20.9029L35.3154 21.0387L35.3725 21.175L35.4282 21.3118L35.4825 21.449L35.5353 21.5866L35.5869 21.7249L35.6369 21.8633L35.6856 22.0022L35.7329 22.1415L35.7788 22.2812L35.8232 22.4212L35.8662 22.5615L35.9079 22.7023L35.948 22.8431L35.9868 22.9844L36.0241 23.126L36.06 23.2678L36.0945 23.4099L36.1276 23.5522L36.1592 23.6947L36.1894 23.8374L36.2182 23.9804L36.2455 24.1234L36.2714 24.2667L36.2959 24.41L36.319 24.5537L36.3405 24.6972L36.3607 24.841L36.3794 24.9847L36.3968 25.1287L36.4126 25.2726L36.4271 25.4166L36.4401 25.5606L36.4516 25.7046L36.4618 25.8487L36.4705 25.9926L36.4778 26.1366L36.4837 26.2805L36.4881 26.4243L36.4912 26.5682L36.4928 26.7119L36.493 26.8554L36.4917 26.9988L36.4891 27.1423L36.485 27.2854L36.4796 27.4284L36.4727 27.5712L36.4645 27.7138L36.4548 27.8563L36.4437 27.9985L36.4313 28.1404L36.4175 28.2821L36.4022 28.4236L36.3856 28.5648L36.3677 28.7057L36.3483 28.8463L36.3276 28.9865L36.3055 29.1264L36.2821 29.266L36.2573 29.4052L36.2311 29.5441L36.2036 29.6824L36.1748 29.8205L36.1446 29.9582L36.1131 30.0954L36.0803 30.2321L36.0462 30.3684L36.0107 30.5043L35.974 30.6396L35.9359 30.7745L35.8965 30.9089L35.8559 31.0426L35.814 31.1759L35.7707 31.3088L35.7263 31.4408L35.6805 31.5724L35.6335 31.7035L35.5853 31.8339L35.5358 31.9638L35.4851 32.0929L35.4331 32.2215L35.3799 32.3495L35.3256 32.4766L35.2699 32.6033L35.2131 32.7292L35.1552 32.8544L35.096 32.9789L35.0357 33.1027L34.9742 33.2257L34.9115 33.348L34.8477 33.4697L34.7827 33.5904L34.7167 33.7104L34.6495 33.8297L34.5812 33.9481L34.5117 34.0659L34.4412 34.1826L34.3696 34.2986L34.2969 34.4138L34.2231 34.5281L34.1483 34.6416L34.0725 34.7541L33.9955 34.8658L33.9176 34.9767L33.8386 35.0867L33.7587 35.1956L33.6777 35.3037L33.5957 35.411L33.5128 35.5171L33.4288 35.6224L33.3439 35.7268L33.2581 35.8301L33.1714 35.9325L33.0837 36.0339L32.995 36.1343L32.9056 36.2336L32.8151 36.3322L32.7238 36.4296L32.6316 36.526L32.5386 36.6212L32.4445 36.7157L32.35 36.8088L32.2543 36.901L32.1579 36.9921L32.0606 37.0823L31.9627 37.1712L31.864 37.259L31.7643 37.3459L31.664 37.4316L31.5628 37.5163L31.4612 37.5996L31.3585 37.682L31.2552 37.7634L31.1513 37.8434L31.0466 37.9224L30.9413 38.0002L30.8354 38.0768L30.7286 38.1524L30.6212 38.2268L30.5134 38.2999L30.4049 38.3718L30.2955 38.4428L30.186 38.5123L30.0754 38.5809L29.9646 38.6481L29.8531 38.7142L29.7411 38.779L29.6285 38.8427L29.5155 38.9051L29.4017 38.9664L29.2879 39.0263L29.1731 39.0851L29.0582 39.1426L28.9427 39.199L28.8267 39.2541L28.7102 39.308L28.5935 39.3605L28.4764 39.4118L28.3589 39.4619L28.2406 39.5109L28.1223 39.5585L28.0035 39.6048L27.8849 39.6497L27.7649 39.6938L27.6457 39.7362L27.5253 39.7776L27.4054 39.8175L27.2844 39.8564L27.1638 39.8938L27.0428 39.93L26.9215 39.9649L26.7997 39.9986L26.6782 40.031L26.5557 40.0622L26.4341 40.0919L26.3115 40.1205L26.1889 40.1478L26.0664 40.1737L25.9434 40.1985L25.8204 40.2219L25.6976 40.244L25.5745 40.2649L25.4509 40.2845L25.328 40.3028L25.2045 40.3198L25.0812 40.3355L24.9576 40.35L24.8341 40.3632L24.7107 40.3751L24.5871 40.3858L24.4638 40.3951L24.34 40.4032L24.217 40.41L24.0935 40.4156L23.9704 40.4198L23.847 40.4228L23.7239 40.4246L23.6008 40.4251L23.4781 40.4243L23.3552 40.4223L23.2326 40.419L23.1103 40.4144L22.9878 40.4086L22.8656 40.4016L22.7437 40.3933L22.6223 40.3838L22.5004 40.373L22.3791 40.361L22.2583 40.3478L22.1373 40.3334L22.0168 40.3177L21.8964 40.3008L21.7766 40.2827L21.6565 40.2633L21.5374 40.2429L21.4183 40.2211L21.2998 40.1983L21.1811 40.1741L21.0632 40.1488L20.9454 40.1223L20.8283 40.0947L20.711 40.0657L20.5949 40.0358L20.4785 40.0046L20.3629 39.9722L20.2477 39.9388L20.1329 39.9041L20.0188 39.8684L19.9047 39.8315L19.7913 39.7934L19.6784 39.7542L19.566 39.714L19.454 39.6726L19.3427 39.6301L19.2317 39.5865L19.1215 39.5418L19.0117 39.496L18.9025 39.4491L18.7939 39.4013L18.6861 39.3524L18.5783 39.3022L18.4715 39.2511L18.3654 39.199L18.2597 39.1458L18.1545 39.0915L18.0505 39.0365L17.9467 38.9801L17.8436 38.9229L17.7414 38.8648L17.6395 38.8054L17.5384 38.7451L17.4385 38.6842L17.3386 38.6219L17.2397 38.5587L17.1417 38.4948L17.0441 38.4297L16.9476 38.3639L16.8512 38.2967L16.7564 38.2292L16.6618 38.1604L16.5683 38.091L16.4753 38.0203L16.3834 37.9492L16.2919 37.8768L16.2015 37.8038L16.112 37.7299L16.023 37.6551L15.935 37.5795L15.8479 37.5031L15.7616 37.4259L15.6759 37.3476L15.5915 37.269L15.5075 37.1891L15.4249 37.109L15.3428 37.0277L15.2616 36.9457L15.1816 36.8633L15.102 36.7796L15.0237 36.6955L14.9463 36.6108L14.8694 36.5249L14.794 36.4389L14.7192 36.3519L14.6454 36.2643L14.5725 36.176L14.5005 36.087L14.4296 35.9974L14.3596 35.9073L14.2907 35.8165L14.2225 35.7249L14.1555 35.633L14.0894 35.5403L14.0241 35.4469L13.96 35.3532L13.8968 35.2588L13.8347 35.164L13.7736 35.0686L13.7135 34.9726L13.6543 34.876L13.5961 34.7789L13.5391 34.6816L13.4831 34.5838L13.4279 34.4851L13.374 34.3864L13.3209 34.2869L13.269 34.1871L13.2181 34.0869L13.1682 33.9862L13.1194 33.8853L13.0718 33.7842L13.0249 33.682L12.9793 33.5799L12.9347 33.4774L12.8912 33.3746L12.8486 33.2711L12.8072 33.1677L12.767 33.0641L12.7276 32.9597L12.6894 32.8553L12.6523 32.7505L12.6162 32.6455L12.5813 32.5405L12.5473 32.4348L12.5145 32.3291L12.4828 32.2234L12.4521 32.1171L12.4225 32.0105L12.394 31.9041L12.3666 31.7976L12.3403 31.6905L12.3151 31.5838L12.2909 31.4763L12.2678 31.369L12.2458 31.2617L12.2248 31.1538L12.2051 31.0467L12.1863 30.9386L12.1687 30.8312L12.1521 30.7229L12.1366 30.6154L12.1222 30.5073L12.1089 30.3994L12.0966 30.2912L12.0855 30.1836L12.0754 30.0752L12.0664 29.9674L12.0585 29.8594L12.0517 29.7518L12.0459 29.6438L12.0412 29.536L12.0375 29.428L12.035 29.3209L12.0335 29.213L12.033 29.1056L12.0337 28.9984L12.0353 28.8912L12.0381 28.7842L12.0419 28.6772L12.0467 28.5705L12.0526 28.464L12.0596 28.3577L12.0676 28.2514L12.0766 28.1454L12.0866 28.0397L12.0977 27.9342L12.1099 27.8286L12.123 27.7238L12.1372 27.6189L12.1524 27.5145L12.1686 27.41L12.1858 27.3063L12.2041 27.2024L12.2233 27.0992L12.2436 26.9959L12.2648 26.8933L12.287 26.7909L12.3102 26.689L12.3345 26.5869L12.3595 26.4862L12.3858 26.3846L12.4128 26.2843L12.4408 26.1842L12.4699 26.0846L12.4999 25.9849L12.5308 25.8862L12.5627 25.7875L12.5954 25.6898L12.6292 25.5919L12.6639 25.4948L12.6994 25.3983L12.736 25.3019L12.7733 25.2062L12.8115 25.1113L12.8508 25.0163L12.8908 24.9224L12.9318 24.8286L12.9737 24.7354L13.0164 24.643L13.06 24.5509L13.1043 24.4596L13.1497 24.3684L13.1959 24.2781L13.2427 24.1885L13.2906 24.0992L13.3392 24.0108L13.3886 23.9228L13.4389 23.8354L13.4899 23.7487L13.5417 23.6627L13.5945 23.577L13.6477 23.4925L13.7021 23.4081L13.7569 23.3248L13.8127 23.2418L13.8691 23.1597L13.9263 23.0783L13.9844 22.9972L14.0429 22.9174L14.1024 22.8378L14.1625 22.7592L14.2232 22.6813L14.2846 22.6041L14.3469 22.5274L14.4099 22.4515L14.4733 22.3767L14.5375 22.3024L14.6025 22.2286L14.6679 22.1559L14.7341 22.0838L14.8008 22.0126L14.8681 21.9422L14.9363 21.8723L15.0048 21.8035L15.0743 21.7351L15.1439 21.6679L15.2141 21.6015L15.2853 21.5356L15.3568 21.4706L15.4287 21.4066L15.5014 21.3433L15.5746 21.2807L15.6482 21.2192L15.7224 21.1583L15.7971 21.0983L15.8722 21.0393L15.948 20.9809L16.024 20.9237L16.1008 20.867L16.1779 20.8112L16.2554 20.7564L16.3334 20.7024L16.4118 20.6493L16.4907 20.597L16.5699 20.5457L16.6495 20.4953L16.7297 20.4456L16.8101 20.3969L16.891 20.3491L16.9722 20.3021L17.0537 20.2561L17.1357 20.2109L17.2179 20.1667L17.3005 20.1233L17.3834 20.0809L17.4667 20.0394L17.5502 19.9987L17.634 19.959L17.7182 19.9202L17.8025 19.8823L17.8872 19.8453L17.972 19.8093L18.0572 19.7741L18.1425 19.74L18.2282 19.7066L18.3141 19.6743L18.4 19.6428L18.4863 19.6123L18.5728 19.5827L18.6593 19.554L18.7461 19.5263L18.833 19.4995L18.9202 19.4736L19.0073 19.4487L19.0947 19.4246L19.1823 19.4015L19.2699 19.3793L19.3575 19.3581L19.4453 19.3378L19.5333 19.3184L19.6212 19.3L19.7092 19.2824L19.7973 19.2658L19.8854 19.2502L19.9735 19.2354L20.0618 19.2216L20.15 19.2087L20.2382 19.1967L20.3264 19.1857L20.4147 19.1755L20.5028 19.1664L20.591 19.1581L20.6792 19.1507L20.7672 19.1442L20.8553 19.1387L20.9433 19.1341L21.0312 19.1304L21.119 19.1275L21.2067 19.1256L21.2943 19.1246L21.3819 19.1246L21.4693 19.1254L21.5565 19.1271L21.6437 19.1297L21.7308 19.1331L21.8175 19.1375L21.9043 19.1428L21.9908 19.1489L22.077 19.156L22.1632 19.1639L22.2492 19.1726L22.335 19.1823L22.4204 19.1928L22.5059 19.2042L22.5908 19.2165L22.6757 19.2296L22.7603 19.2435L22.8447 19.2583L22.9287 19.274L23.0126 19.2905L23.0962 19.3079L23.1793 19.326L23.2623 19.345L23.345 19.3649L23.4273 19.3855L23.5093 19.407L23.5911 19.4293L23.6724 19.4524L23.7534 19.4763L23.8341 19.501L23.9143 19.5265L23.9944 19.5528L24.074 19.5799L24.1531 19.6077L24.232 19.6364L24.3103 19.6658L24.3884 19.6959L24.466 19.7269L24.5431 19.7585L24.6199 19.791L24.6964 19.8242L24.7722 19.8581L24.8477 19.8927L24.9226 19.9281L24.9973 19.9642L25.0713 20.001L25.145 20.0386L25.2181 20.0768L25.2908 20.1157L25.3629 20.1553L25.4347 20.1956L25.5058 20.2366L25.5764 20.2782L25.6467 20.3206L25.7163 20.3636L25.7854 20.4072L25.854 20.4515L25.922 20.4965L25.9895 20.542L26.0565 20.5882L26.1228 20.6351L26.1887 20.6825L26.254 20.7306L26.3187 20.7792L26.3827 20.8284L26.4463 20.8783L26.5093 20.9287L26.5716 20.9797L26.6334 21.0313L26.6946 21.0834L26.7552 21.1361L26.8151 21.1892L26.8745 21.2431L26.9332 21.2973L26.9913 21.3522L27.0486 21.4074L27.1056 21.4634L27.1617 21.5197L27.2173 21.5765L27.2722 21.6339L27.3265 21.6917L27.3801 21.75L27.433 21.8088L27.4853 21.868L27.5368 21.9276L27.5879 21.9878L27.6381 22.0483L27.6877 22.1092L27.7367 22.1707L27.7849 22.2324L27.8324 22.2946L27.8793 22.3572L27.9255 22.4203L27.971 22.4836L28.0157 22.5473L28.0599 22.6115L28.1032 22.676L28.1459 22.7407L28.1878 22.8059L28.2291 22.8714L28.2696 22.9371L28.3095 23.0034L28.3485 23.0697L28.387 23.1365L28.4246 23.2035L28.4616 23.2709L28.4978 23.3385L28.5332 23.4062L28.5681 23.4745L28.6021 23.5428L28.6354 23.6115L28.668 23.6803L28.6998 23.7494L28.7309 23.8188L28.7613 23.8883L28.7909 23.958L28.8198 24.0279L28.848 24.0981L28.8753 24.1682L28.9021 24.239L28.9279 24.3094L28.9532 24.3803L28.9776 24.4511L29.0013 24.5223L29.0243 24.5935L29.0465 24.6649L29.0679 24.7362L29.0887 24.8079L29.1086 24.8794L29.1279 24.9514L29.1463 25.023L29.1641 25.095L29.1811 25.167L29.1974 25.239L29.2129 25.3112L29.2277 25.3832L29.2417 25.4554L29.255 25.5277L29.2676 25.5997L29.2794 25.6721L29.2905 25.7443L29.3008 25.8163L29.3105 25.8887L29.3194 25.9609L29.3275 26.0331L29.3349 26.1053L29.3416 26.1773L29.3476 26.2495L29.3528 26.3212L29.3573 26.3934L29.3611 26.4652L29.3642 26.5368L29.3665 26.6085L29.3682 26.6803L29.3691 26.7517L29.3693 26.823L29.3688 26.8942L29.3676 26.9655L29.3657 27.0363L29.3631 27.1074L29.3598 27.1779L29.3558 27.2487L29.3511 27.3189L29.3457 27.3892L29.3396 27.4593L29.3328 27.5292L29.3253 27.5987L29.3172 27.6683L29.3084 27.7376L29.2989 27.8067L29.2887 27.8754L29.2779 27.9442L29.2664 28.0125L29.2542 28.0808L29.2415 28.1486L29.228 28.2164L29.2139 28.2837L29.1991 28.3509L29.1837 28.4178L29.1677 28.4844L29.151 28.5507L29.1337 28.6168L29.1158 28.6825L29.0972 28.7479L29.0781 28.8131L29.0583 28.8778L29.0379 28.9423L29.0169 29.0065L28.9953 29.0703L28.973 29.134L28.9503 29.1969L28.9269 29.26L28.9029 29.3223L28.8784 29.3843L28.8533 29.4461L28.8276 29.5075L28.8014 29.5685L28.7746 29.6289L28.7472 29.6894L28.7193 29.7492L28.6908 29.8086L28.6618 29.8676L28.6324 29.9261L28.6022 29.9844L28.5717 30.0421L28.5405 30.0997L28.509 30.1564L28.4769 30.2129L28.4441 30.2692L28.4111 30.3247L28.3775 30.3797L28.3434 30.4346L28.3088 30.4888L28.2736 30.5428L28.2382 30.596L28.2022 30.6489L28.1657 30.7013L28.1288 30.7533L28.0916 30.8046L28.0536 30.8557L28.0155 30.9061L27.9768 30.9561L27.9376 31.0057L27.8982 31.0546L27.8582 31.1032L27.818 31.1511L27.7772 31.1987L27.7361 31.2456L27.6946 31.2919L27.6527 31.338L27.6104 31.3834L27.5677 31.4283L27.5247 31.4726L27.4813 31.5165L27.4377 31.5597L27.3937 31.6024L27.3492 31.6447L27.3044 31.6864L27.2594 31.7275L27.214 31.7681L27.1683 31.8081L27.1223 31.8476L27.076 31.8865L27.0293 31.925L26.9826 31.9626L26.9352 32L26.8878 32.0367L26.8401 32.0728L26.7922 32.1083L26.7438 32.1434L26.6954 32.1777L26.6465 32.2116L26.5975 32.2449L26.5483 32.2776L26.4989 32.3097L26.4492 32.3412L26.3992 32.3723L26.3493 32.4026L26.2989 32.4325L26.2485 32.4616L26.1977 32.4904L26.1469 32.5184L26.0958 32.5459L26.0446 32.5727L25.9933 32.599L25.9417 32.6247L25.89 32.6499L25.8382 32.6745L25.7863 32.6984L25.7342 32.7218L25.682 32.7445L25.6295 32.7668L25.5771 32.7883L25.5246 32.8093L25.472 32.8297L25.4191 32.8496L25.3663 32.8689L25.3134 32.8875L25.2605 32.9056L25.2074 32.9231L25.1543 32.9399L25.1009 32.9563L25.0479 32.972L24.9946 32.9871L24.9413 33.0017L24.8878 33.0157L24.8345 33.0291L24.7813 33.0418L24.7277 33.0541L24.6743 33.0657L24.6209 33.0768L24.5676 33.0872L24.5141 33.0972L24.4609 33.1065L24.4073 33.1153L24.3541 33.1234L24.3007 33.1311L24.2476 33.1381L24.1944 33.1446L24.1411 33.1505L24.0881 33.1558L24.035 33.1606L23.9822 33.1648L23.9292 33.1685L23.8764 33.1716L23.8236 33.1742L23.771 33.1762L23.7185 33.1776L23.6662 33.1785L23.6137 33.1789L23.5615 33.1787L23.5094 33.1779L23.4574 33.1767L23.4057 33.1749L23.354 33.1725L23.3022 33.1696L23.251 33.1662L23.1997 33.1623L23.1485 33.1578L23.0977 33.1529L23.0467 33.1473L22.9962 33.1413L22.9458 33.1348L22.8955 33.1278L22.8455 33.1202L22.7955 33.1122L22.7458 33.1036L22.6964 33.0946L22.6471 33.0851L22.5979 33.0751L22.5491 33.0646L22.5006 33.0536L22.452 33.0421L22.404 33.0302L22.3559 33.0177L22.3082 33.0048L22.2608 32.9915L22.2136 32.9776L22.1666 32.9634L22.1198 32.9486L22.0733 32.9334L22.0271 32.9178L21.9812 32.9017L21.9356 32.8852L21.8901 32.8682L21.8449 32.8508L21.8003 32.8331L21.7556 32.8148L21.7112 32.7961L21.6675 32.7771L21.6237 32.7576L21.5802 32.7376L21.5373 32.7174L21.4946 32.6967L21.4522 32.6756L21.4099 32.6541L21.368 32.6322L21.3268 32.61L21.2856 32.5874L21.2447 32.5644L21.2041 32.541L21.164 32.5172L21.1243 32.4932L21.0846 32.4687L21.0456 32.444L21.0067 32.4188L20.9684 32.3934L20.9302 32.3675L20.8924 32.3413L20.8552 32.3149L20.818 32.288L20.7815 32.2609L20.7452 32.2335L20.7093 32.2058L20.6737 32.1777L20.6384 32.1493L20.6037 32.1207L20.5694 32.0919L20.5352 32.0625L20.5015 32.033L20.4683 32.0033L20.4354 31.9732L20.4028 31.9429L20.3708 31.9124L20.3391 31.8816L20.3077 31.8504L20.2768 31.8191L20.2462 31.7875L20.2161 31.7559L20.1863 31.7237L20.157 31.6915L20.128 31.659L20.0995 31.6263L20.0714 31.5935L20.0437 31.5604L20.0163 31.527L19.9893 31.4935L19.9629 31.4598L19.9369 31.426L19.9111 31.3919L19.8859 31.3577L19.861 31.3233L19.8366 31.2887L19.8126 31.254L19.7889 31.2191L19.7658 31.1841L19.743 31.1488L19.7207 31.1136L19.6987 31.0781L19.6772 31.0426L19.6561 31.0068L19.6355 30.9711L19.6152 30.935L19.5953 30.8989L19.576 30.8629L19.5569 30.8266L19.5383 30.7902L19.5202 30.7538L19.5024 30.7172L19.4852 30.6807L19.4682 30.6439L19.4518 30.6072L19.4357 30.5704L19.4201 30.5335L19.4048 30.4965L19.39 30.4595L19.3757 30.4226L19.3617 30.3854L19.3481 30.3483L19.3349 30.3111L19.3222 30.274L19.31 30.2369L19.298 30.1996L19.2865 30.1623L19.2755 30.1252L19.2648 30.0878L19.2545 30.0507L19.2447 30.0134L19.2352 29.9762L19.2262 29.939L19.2176 29.9019L19.2093 29.8647L19.2015 29.8275L19.194 29.7905L19.187 29.7533L19.1804 29.7164L19.1741 29.6794L19.1682 29.6423L19.1628 29.6056L19.1578 29.5689L19.1531 29.5321L19.1488 29.4954L19.1449 29.4588L19.1413 29.4222L19.1382 29.3859L19.1354 29.3494L19.1331 29.3133L19.131 29.277L19.1294 29.2409L19.1281 29.205L19.1272 29.1691L19.1267 29.1335L19.1265 29.0977L19.1265 29.0465L19.1265 28.9847L19.1265 28.935L14.2303 28.935L14.2292 29.009L14.2287 29.096L14.2291 29.183L14.2304 29.2702L14.2326 29.3576L14.2357 29.4449L14.2396 29.5324L14.2445 29.6198L14.2503 29.7073L14.2569 29.795L14.2645 29.8826L14.2729 29.9703L14.2823 30.058L14.2926 30.1455L14.3037 30.2331L14.3158 30.321L14.3288 30.4087L14.3426 30.4961L14.3574 30.5837L14.3732 30.6713L14.3897 30.7587L14.4073 30.8461L14.4257 30.9335L14.445 31.0206L14.4652 31.1077L14.4864 31.1948L14.5085 31.2817L14.5314 31.3684L14.5553 31.455L14.5801 31.5416L14.6058 31.6279L14.6323 31.714L14.6598 31.8L14.6883 31.8858L14.7176 31.9714L14.7478 32.0568L14.7789 32.1419L14.8109 32.2268L14.8438 32.3116L14.8776 32.3961L14.9123 32.4802L14.9479 32.5642L14.9844 32.6479L15.0218 32.7313L15.06 32.8143L15.0992 32.8971L15.1392 32.9796L15.1802 33.0618L15.222 33.1435L15.2646 33.225L15.3082 33.3061L15.3526 33.3868L15.3979 33.4672L15.4441 33.5472L15.4911 33.6268L15.539 33.706L15.5878 33.7849L15.6374 33.8633L15.6878 33.9412L15.7391 34.0186L15.7912 34.0957L15.8442 34.1723L15.898 34.2484L15.9527 34.3241L16.0081 34.3993L16.0645 34.474L16.1216 34.5481L16.1795 34.6218L16.2383 34.6949L16.2978 34.7675L16.3581 34.8395L16.4193 34.9111L16.4813 34.9821L16.544 35.0524L16.6075 35.1222L16.6718 35.1914L16.7369 35.2601L16.8027 35.3281L16.8693 35.3955L16.9366 35.4622L17.0047 35.5285L17.0736 35.594L17.1432 35.6588L17.2135 35.7231L17.2846 35.7867L17.3564 35.8495L17.4288 35.9117L17.502 35.9732L17.5759 36.0341L17.6505 36.0942L17.7257 36.1535L17.8018 36.2122L17.8784 36.2702L17.9557 36.3274L18.0337 36.3839L18.1124 36.4396L18.1916 36.4945L18.2715 36.5487L18.3521 36.6021L18.4333 36.6547L18.5152 36.7066L18.5975 36.7576L18.6806 36.8078L18.7643 36.8573L18.8484 36.9058L18.9332 36.9536L19.0186 37.0005L19.1046 37.0467L19.1911 37.0919L19.2781 37.1363L19.3657 37.1798L19.4539 37.2225L19.5425 37.2643L19.6317 37.3052L19.7214 37.3452L19.8116 37.3843L19.9022 37.4225L19.9934 37.4599L20.0851 37.4963L20.1771 37.5318L20.2697 37.5663L20.3627 37.6L20.4561 37.6327L20.5501 37.6645L20.6444 37.6953L20.739 37.7251L20.8341 37.7541L20.9296 37.782L21.0256 37.809L21.1218 37.835L21.2184 37.86L21.3154 37.8841L21.4127 37.9072L21.5103 37.9292L21.6084 37.9503L21.7067 37.9704L21.8052 37.9895L21.9042 38.0075L22.0034 38.0246L22.1028 38.0406L22.2025 38.0556L22.3026 38.0696L22.4028 38.0826L22.5033 38.0945L22.604 38.1054L22.7048 38.1153L22.806 38.1241L22.9073 38.1319L23.0088 38.1386L23.1105 38.1443L23.2122 38.1489L23.3143 38.1525L23.4164 38.155L23.5186 38.1564L23.621 38.1568L23.7234 38.1561L23.8261 38.1543L23.9287 38.1515L24.0314 38.1476L24.1343 38.1426L24.2371 38.1366L24.34 38.1295L24.4431 38.1212L24.546 38.112L24.649 38.1016L24.7519 38.0901L24.8549 38.0776L24.9579 38.064L25.0608 38.0493L25.1637 38.0335L25.2665 38.0166L25.3692 37.9987L25.4719 37.9796L25.5746 37.9594L25.6771 37.9382L25.7794 37.9159L25.8816 37.8925L25.9838 37.868L26.0858 37.8424L26.1876 37.8157L26.2892 37.788L26.3907 37.7592L26.4921 37.7292L26.5931 37.6982L26.694 37.6661L26.7947 37.6329L26.8952 37.5987L26.9953 37.5634L27.0953 37.527L27.1949 37.4895L27.2943 37.4509L27.3935 37.4113L27.4922 37.3706L27.5907 37.3289L27.6889 37.286L27.7868 37.2421L27.8842 37.1972L27.9814 37.1512L28.0782 37.1041L28.1746 37.056L28.2706 37.0068L28.3662 36.9566L28.4614 36.9054L28.5562 36.8531L28.6505 36.7998L28.7444 36.7454L28.8379 36.6901L28.9309 36.6336L29.0234 36.5762L29.1154 36.5178L29.2069 36.4583L29.298 36.3978L29.3886 36.3363L29.4785 36.2739L29.5679 36.2105L29.6568 36.146L29.7452 36.0805L29.8329 36.0141L29.9201 35.9468L30.0067 35.8784L30.0927 35.8091L30.1781 35.7388L30.2628 35.6676L30.3469 35.5954L30.4304 35.5222L30.5132 35.4482L30.5954 35.3732L30.6769 35.2973L30.7577 35.2204L30.8378 35.1427L30.9172 35.0641L30.996 34.9845L31.0739 34.9041L31.1511 34.8228L31.2277 34.7405L31.3035 34.6575L31.3785 34.5736L31.4527 34.4888L31.5261 34.4032L31.5988 34.3167L31.6707 34.2293L31.7418 34.1412L31.812 34.0522L31.8814 33.9624L31.95 33.8719L32.0178 33.7805L32.0847 33.6883L32.1507 33.5954L32.2159 33.5017L32.2802 33.4073L32.3437 33.312L32.4062 33.2161L32.4678 33.1193L32.5285 33.0219L32.5883 32.9238L32.6472 32.8249L32.7051 32.7253L32.7621 32.625L32.8182 32.5241L32.8732 32.4225L32.9274 32.3202L32.9806 32.2173L33.0327 32.1137L33.0839 32.0095L33.1341 31.9046L33.1833 31.7992L33.2315 31.6932L33.2787 31.5865L33.3249 31.4792L33.37 31.3714L33.4141 31.2631L33.4571 31.1541L33.4991 31.0446L33.5401 30.9346L33.58 30.8241L33.6188 30.713L33.6565 30.6014L33.6932 30.4894L33.7288 30.3768L33.7633 30.2638L33.7967 30.1504L33.829 30.0365L33.8601 29.9221L33.8902 29.8073L33.9192 29.6922L33.947 29.5766L33.9737 29.4605L33.9993 29.3442L34.0237 29.2275L34.047 29.1104L34.0692 28.9929L34.0902 28.8752L34.11 28.7571L34.1287 28.6387L34.1462 28.52L34.1625 28.401L34.1777 28.2817L34.1917 28.1622L34.2045 28.0424L34.2162 27.9223L34.2266 27.8021L34.2359 27.6816L34.2439 27.5609L34.2508 27.4401L34.2565 27.319L34.261 27.1978L34.2642 27.0765L34.2663 26.955L34.2672 26.8333L34.2668 26.7116L34.2652 26.5897L34.2624 26.4678L34.2584 26.3458L34.2532 26.2237L34.2468 26.1015L34.2391 25.9793L34.2302 25.8571L34.2201 25.7349L34.2087 25.6126L34.1961 25.4904L34.1823 25.3682L34.1673 25.2461L34.1511 25.1239L34.1336 25.0018L34.1148 24.8799L34.0949 24.758L34.0737 24.6361L34.0513 24.5144L34.0276 24.3929L34.0027 24.2715L33.9766 24.1502L33.9493 24.0291L33.9207 23.9081L33.8909 23.7874L33.8599 23.6668L33.8276 23.5465L33.7941 23.4264L33.7594 23.3065L33.7235 23.1869L33.6863 23.0676L33.6479 22.9485L33.6083 22.8298L33.5675 22.7113L33.5255 22.5932L33.4822 22.4754L33.4378 22.3579L33.3921 22.2408L33.3453 22.1241L33.2972 22.0077L33.2479 21.8918L33.1975 21.7762L33.1458 21.6611L33.093 21.5464L33.0389 21.4321L32.9837 21.3183L32.9273 21.205L32.8697 21.0922L32.811 20.9799L32.7511 20.8681L32.69 20.7567L32.6277 20.646L32.5643 20.5358L32.4998 20.4261L32.4341 20.317L32.3672 20.2085L32.2993 20.1006L32.2302 19.9933L32.16 19.8867L32.0886 19.7806L32.0161 19.6752L31.9426 19.5705L31.8679 19.4664L31.7921 19.3631L31.7152 19.2604L31.6373 19.1584L31.5582 19.0571L31.4781 18.9566L31.3969 18.8568L31.3147 18.7578L31.2314 18.6595L31.147 18.562L31.0617 18.4653L30.9752 18.3694L30.8878 18.2743L30.7993 18.1801L30.7098 18.0866L30.6193 17.994L30.5279 17.9023L30.4354 17.8114L30.342 17.7214L30.2475 17.6323L30.1521 17.5441L30.0558 17.4568L29.9585 17.3704L29.8603 17.285L29.7611 17.2005L29.661 17.117L29.56 17.0344L29.4581 16.9528L29.3553 16.8721L29.2516 16.7925L29.1471 16.7139L29.0416 16.6363L28.9353 16.5597L28.8282 16.4841L28.7202 16.4096L28.6114 16.3361L28.5018 16.2638L28.3914 16.1924L28.2801 16.1222L28.1681 16.053L28.0553 15.985L27.9417 15.918L27.8274 15.8522L27.7123 15.7875L27.5965 15.7239L27.4799 15.6614L27.3627 15.6002L27.2447 15.54L27.1261 15.4811L27.0068 15.4233L26.8867 15.3667L26.766 15.3113L26.6447 15.2571L26.5228 15.2041L26.4002 15.1523L26.277 15.1017L26.1532 15.0524L26.0288 15.0043L25.9039 14.9575L25.7783 14.9118L25.6523 14.8675L25.5256 14.8244L25.3985 14.7826L25.2708 14.7421L25.1426 14.7028L25.014 14.6649L24.8848 14.6282L24.7552 14.5928L24.6252 14.5588L24.4947 14.526L24.3637 14.4946L24.2324 14.4645L24.1006 14.4357L23.9685 14.4083L23.8359 14.3822L23.7031 14.3575L23.5698 14.3341L23.4363 14.312L23.3024 14.2914L23.1681 14.272L23.0336 14.2541L22.8989 14.2375L22.7638 14.2223L22.6285 14.2085L22.4929 14.196L22.3571 14.185L22.2212 14.1753L22.085 14.167L21.9485 14.1601L21.812 14.1547L21.6753 14.1506L21.5384 14.1479L21.4014 14.1467L21.2643 14.1468L21.127 14.1484L20.9897 14.1514L20.8523 14.1558L20.7149 14.1616L20.5774 14.1688L20.4399 14.1775L20.3023 14.1875L20.1647 14.199L20.0272 14.212L19.8896 14.2263L19.7521 14.2421L19.6147 14.2593L19.4774 14.278L19.3401 14.298L19.2029 14.3195L19.0658 14.3424L18.9288 14.3668L18.792 14.3926L18.6553 14.4198L18.5188 14.4484L18.3825 14.4785L18.2463 14.51L18.1104 14.5429L17.9747 14.5773L17.8393 14.613L17.7041 14.6502L17.5691 14.6888L17.4345 14.7288L17.3001 14.7703L17.1661 14.8131L17.0324 14.8574L16.899 14.9031L16.766 14.9501L16.6333 14.9986L16.501 15.0485L16.3692 15.0998L16.2377 15.1525L16.1066 15.2066L15.976 15.262L15.8459 15.3189L15.7162 15.3771L15.587 15.4367L15.4583 15.4977L15.3301 15.56L15.2025 15.6237L15.0753 15.6888L14.9487 15.7552L14.8227 15.823L14.6973 15.8922L14.5724 15.9626L14.4482 16.0344L14.3246 16.1076L14.2016 16.182L14.0793 16.2578L13.9576 16.3349L13.8367 16.4133L13.7164 16.493L13.5968 16.574L13.4779 16.6563L13.3597 16.7399L13.2423 16.8247L13.1257 16.9108L13.0098 16.9982L12.8947 17.0869L12.7804 17.1767L12.6669 17.2679L12.5542 17.3602L12.4424 17.4538L12.3314 17.5486L12.2213 17.6446L12.112 17.7418L12.0037 17.8402L11.8962 17.9398L11.7896 18.0406L11.684 18.1425L11.5793 18.2456L11.4755 18.3498L11.3727 18.4552L11.2709 18.5617L11.1701 18.6694L11.0702 18.7781L10.9713 18.888L10.8735 18.9989L10.7767 19.111L10.681 19.2241L10.5863 19.3383L10.4927 19.4535L10.4001 19.5698L10.3086 19.6871L10.2182 19.8054L10.129 19.9248L10.0408 20.0451L9.95381 20.1664L9.86793 20.2887L9.78321 20.412L9.69963 20.5363L9.61724 20.6615L9.53603 20.7876L9.45603 20.9147L9.37722 21.0426L9.2996 21.1715L9.22322 21.3012L9.14807 21.4319L9.07417 21.5634L9.00152 21.6957L8.93012 21.8289L8.85998 21.9629L8.79116 22.0977L8.72359 22.2333L8.65733 22.3697L8.59239 22.5069L8.52872 22.6449L8.46639 22.7836L8.40541 22.923L8.34576 23.0632L8.28744 23.2041L8.23049 23.3457L8.1749 23.4879L8.12069 23.6308L8.06785 23.7744L8.01638 23.9186L7.96631 24.0635L7.91767 24.2089L7.87041 24.355L7.82455 24.5017L7.78013 24.6489L7.73714 24.7966L7.69556 24.945L7.65544 25.0939L7.61678 25.2432L7.57955 25.3931L7.54378 25.5435L7.50948 25.6943L7.47666 25.8456L7.4453 25.9973L7.41542 26.1495L7.38703 26.302L7.36013 26.455L7.33473 26.6083L7.31083 26.762L7.28844 26.9161L7.26755 27.0705L7.24817 27.2252L7.23031 27.3802L7.21398 27.5356L7.19918 27.6912L7.18591 27.847L7.17417 28.003L7.16396 28.1594L7.15529 28.316L7.14818 28.4726L7.1426 28.6295L7.13857 28.7866L7.1361 28.9439L7.13519 29.1012L7.13582 29.2586L7.13802 29.4162L7.14178 29.5739L7.1471 29.7315L7.15398 29.8893L7.16244 30.0471L7.17245 30.205L7.18405 30.3628L7.1972 30.5206L7.21193 30.6784L7.22824 30.8362L7.24611 30.9939L7.26555 31.1515L7.28657 31.309L7.30916 31.4664L7.33333 31.6237L7.35906 31.7808L7.38637 31.9378L7.41525 32.0946L7.4457 32.2512L7.47774 32.4077L7.51133 32.5638L7.54649 32.7198L7.58321 32.8755L7.62151 33.0309L7.66136 33.186L7.70278 33.3409L7.74576 33.4954L7.79028 33.6495L7.83639 33.8034L7.88403 33.9568L7.93321 34.1098L7.98396 34.2625L8.03625 34.4148L8.09008 34.5665L8.14544 34.7179L8.20235 34.8688L8.26079 35.0192L8.32074 35.1691L8.38221 35.3185L8.44521 35.4673L8.50973 35.6157L8.57576 35.7634L8.64327 35.9105L8.71232 36.0571L8.78284 36.2031L8.85487 36.3484L8.92837 36.4931L9.00336 36.6372L9.07981 36.7805L9.15772 36.9231L9.23711 37.0651L9.31797 37.2064L9.4003 37.3469L9.48401 37.4866L9.56918 37.6256L9.65583 37.7639L9.74387 37.9013L9.83328 38.0378L9.92415 38.1736L10.0165 38.3085L10.1101 38.4426L10.2051 38.5758L10.3016 38.7081L10.3994 38.8395L10.4985 38.97L10.5991 39.0995L10.701 39.2282L10.8041 39.3558L10.9087 39.4824L11.0146 39.6082L11.1217 39.7328L11.2302 39.8565L11.34 39.9791L11.451 40.1007L11.5633 40.2212L11.6769 40.3406L11.7918 40.459L11.9079 40.5762L12.0252 40.6924L12.1438 40.8074L12.2635 40.9213L12.3845 41.034L12.5067 41.1455L12.63 41.2559L12.7546 41.3651L12.8802 41.473L13.007 41.5798L13.135 41.6853L13.2641 41.7896L13.3943 41.8926L13.5257 41.9943L13.658 42.0948L13.7915 42.1939L13.9261 42.2918L14.0616 42.3883L14.1983 42.4836L14.336 42.5774L14.4747 42.67L14.6144 42.7611L14.755 42.8509L14.8967 42.9393L15.0393 43.0263L15.1829 43.1119L15.3274 43.196L15.4729 43.2788L15.6192 43.3601L15.7664 43.4399L15.9146 43.5183L16.0636 43.5953L16.2134 43.6707L16.3641 43.7447L16.5157 43.8171L16.668 43.8881L16.8211 43.9575L16.975 44.0254L17.1297 44.0917L17.2851 44.1566L17.4414 44.2199L17.5982 44.2816L17.7558 44.3417L17.9141 44.4002L18.0731 44.4572L18.2327 44.5126L18.393 44.5664L18.554 44.6185L18.7155 44.669L18.8777 44.718L19.0403 44.7652L19.2036 44.8109L19.3675 44.8549L19.5319 44.8972L19.6967 44.9379L19.8622 44.9769L20.0281 45.0143L20.1944 45.0499L20.3613 45.0839L20.5286 45.1162L20.6962 45.1468L20.8643 45.1757L21.0328 45.2029L21.2016 45.2284L21.3709 45.2521L21.5404 45.2742L21.7102 45.2945L21.8805 45.3131L22.0509 45.3299L22.2216 45.345L22.3926 45.3584L22.5639 45.3701L22.7353 45.3799L22.9069 45.3881L23.0788 45.3944L23.2508 45.399L23.4229 45.4019L23.5952 45.403L23.7676 45.4023L23.9401 45.3999L24.1127 45.3956L24.2853 45.3896L24.458 45.3819L24.6307 45.3723L24.8034 45.361L24.9761 45.3479L25.1488 45.3331L25.3215 45.3164L25.494 45.298L25.6665 45.2778L25.8389 45.2558L26.0112 45.232L26.1834 45.2064L26.3554 45.1791L26.5272 45.15L26.6989 45.1191L26.8704 45.0864L27.0416 45.052L27.2126 45.0157L27.3834 44.9777L27.5538 44.938L27.724 44.8964L27.8938 44.8531L28.0634 44.808L28.2325 44.7612L28.4014 44.7125L28.5699 44.6622L28.7379 44.6101L28.9055 44.5562L29.0728 44.5005L29.2395 44.4431L29.4058 44.384L29.5716 44.3232L29.7369 44.2606L29.9017 44.1963L30.0659 44.1302L30.2295 44.0624L30.3926 43.9929L30.5551 43.9217L30.7171 43.8488L30.8784 43.7742L31.0389 43.6979L31.1989 43.6199L31.3582 43.5402L31.5168 43.4588L31.6747 43.3758L31.8319 43.2911L31.9883 43.2047L32.1439 43.1167L32.2989 43.027L32.4529 42.9357L32.6061 42.8428L32.7586 42.7482L32.9102 42.652L33.0609 42.5543L33.2107 42.4549L33.3597 42.3539L33.5077 42.2513L33.6549 42.1472L33.801 42.0415L33.9462 41.9342L34.0905 41.8254L34.2336 41.7151L34.3759 41.6032L34.5171 41.4897L34.6573 41.3748L34.7964 41.2584L34.9344 41.1405L35.0714 41.0211L35.2072 40.9002L35.342 40.7779L35.4756 40.6541L35.6081 40.5288L35.7393 40.4022L35.8695 40.2742L35.9984 40.1447L36.1261 40.0138L36.2526 39.8816L36.3779 39.7479L36.5019 39.613L36.6247 39.4766L36.7462 39.339L36.8664 39.2L36.9853 39.0597L37.1028 38.9181L37.2191 38.7752L37.334 38.6311L37.4475 38.4857L37.5597 38.339L37.6704 38.1911L37.7798 38.042L37.8878 37.8917L37.9943 37.7403L38.0995 37.5876L38.2031 37.4337L38.3053 37.2787L38.4061 37.1226L38.5053 36.9654L38.603 36.8071L38.6993 36.6476L38.794 36.4871L38.8872 36.3255L38.9788 36.1629L39.0689 35.9993L39.1574 35.8346L39.2444 35.669L39.3298 35.5023L39.4135 35.3347L39.4957 35.1662L39.5762 34.9967L39.6551 34.8263L39.7324 34.655L39.808 34.4828L39.882 34.3097L39.9543 34.1358L40.0249 33.961L40.0939 33.7854L40.1611 33.6091L40.2266 33.4319L40.2905 33.254L40.3526 33.0753L40.4129 32.8958L40.4716 32.7157L40.5285 32.5348L40.5836 32.3533L40.637 32.1711L40.6886 31.9883L40.7384 31.8048L40.7865 31.6207L40.8327 31.436L40.8772 31.2508L40.9199 31.065L40.9607 30.8786L40.9997 30.6918L41.037 30.5044L41.0723 30.3165L41.1059 30.1282L41.1376 29.9394L41.1674 29.7502L41.1955 29.5606L41.2216 29.3706L41.2459 29.1803L41.2683 28.9895L41.2889 28.7985L41.3076 28.6071L41.3244 28.4154L41.3393 28.2235L41.3523 28.0313L41.3635 27.8388L41.3727 27.6462L41.3801 27.4533L41.3855 27.2603L41.3891 27.0671L41.3908 26.8737L41.3905 26.6802L41.3883 26.4867L41.3843 26.293L41.3783 26.0993L41.3704 25.9055L41.3605 25.7117L41.3488 25.5179L41.3352 25.3241L41.3196 25.1304L41.3021 24.9367L41.2827 24.7431L41.2613 24.5495L41.2381 24.3561L41.2129 24.1628L41.1858 23.9697L41.1568 23.7768L41.1258 23.584L41.093 23.3914L41.0582 23.1991L41.0215 23.007L40.9829 22.8152L40.9424 22.6237L40.8999 22.4325L40.8556 22.2417L40.8093 22.0512L40.7612 21.861L40.7111 21.6713L40.6592 21.4819L40.6053 21.293L40.5496 21.1045L40.4919 20.9165L40.4324 20.729L40.371 20.542L40.3077 20.3555L40.2426 20.1696L40.1755 19.9842L40.1067 19.7995L40.0359 19.6153L39.9633 19.4318L39.8888 19.2489L39.8125 19.0666L39.7344 18.8851L39.6544 18.7042L39.5726 18.5241L39.489 18.3447L39.4036 18.1661L39.3163 17.9882L39.2273 17.8112L39.1364 17.6349L39.0438 17.4595L38.9494 17.285L38.8532 17.1113L38.7553 16.9385L38.6556 16.7667L38.5541 16.5957L38.4509 16.4257L38.346 16.2567L38.2394 16.0886L38.131 15.9216L38.021 15.7556L37.9092 15.5906L37.7957 15.4266L37.6806 15.2638L37.5638 15.102L37.4454 14.9414L37.3252 14.7818L37.2035 14.6234L37.0802 14.4662L36.9552 14.3102L36.8286 14.1553L36.7004 14.0017L36.5706 13.8493L36.4393 13.6981L36.3064 13.5482L36.1719 13.3996L36.0359 13.2523L35.8984 13.1063L35.7594 12.9617L35.6189 12.8183L35.4769 12.6764L35.3334 12.5358L35.1884 12.3966L35.042 12.2588L34.8942 12.1225L34.7449 11.9876L34.5943 11.8541L34.4422 11.7221L34.2888 11.5916L34.134 11.4627L33.9778 11.3352L33.8203 11.2092L33.6615 11.0848L33.5013 10.962L33.3399 10.8407L33.1772 10.7211L33.0132 10.603L32.8479 10.4866L32.6815 10.3717L32.5138 10.2586L32.3449 10.147L32.1748 10.0372L32.0036 9.92902L31.8312 9.82256L31.6576 9.71779L31.483 9.61475L31.3072 9.51345L31.1303 9.4139L30.9524 9.3161L30.7734 9.22007L30.5934 9.12583L30.4123 9.03338L30.2302 8.94273L30.0472 8.8539L29.8632 8.7669L29.6782 8.68174L29.4923 8.59842L29.3055 8.51697L29.1177 8.43738L28.9291 8.35968L28.7397 8.28387L28.5493 8.20996L28.3582 8.13795L28.1662 8.06787L27.9735 7.99972L27.78 7.9335L27.5857 7.86923L27.3908 7.80691L27.195 7.74656L26.9986 7.68818L26.8016 7.63178L26.6038 7.57737L26.4055 7.52496L26.2065 7.47455L26.0069 7.42615L25.8067 7.37977L25.606 7.33541L25.4047 7.29309L25.203 7.2528L25.0007 7.21456L24.7979 7.17836L24.5947 7.14423L24.391 7.11216L24.187 7.08215L23.9825 7.05422L23.7776 7.02837L23.5724 7.0046L23.3669 6.98292L23.161 6.96333L22.9549 6.94584L22.7484 6.93045L22.5417 6.91716L22.3348 6.90598L22.1277 6.89692L21.9204 6.88997L21.7129 6.88513L21.5052 6.88242L21.2974 6.88183L21.0895 6.88337L20.8816 6.88704L20.6735 6.89283L20.4654 6.90076L20.2573 6.91082L20.0492 6.92301L19.8411 6.93734L19.633 6.95381L19.425 6.97241L19.2171 6.99316L19.0093 7.01604L18.8016 7.04105L18.594 7.06821L18.3867 7.0975L18.1795 7.12892L17.9725 7.16249L17.7657 7.19818L17.5592 7.23601L17.353 7.27597L17.147 7.31806L16.9414 7.36228L16.7361 7.40863L16.5312 7.45709L16.3266 7.50768L16.1224 7.56039L15.9187 7.61521L15.7154 7.67213L15.5126 7.73117L15.3102 7.79231L15.1084 7.85555L14.9071 7.92089L14.7063 7.98832L14.5061 8.05783L14.3065 8.12943L14.1075 8.2031L13.9091 8.27884L13.7114 8.35666L13.5143 8.43652L13.318 8.51845L13.1223 8.60242L12.9274 8.68843L12.7333 8.77648L12.5399 8.86656L12.3473 8.95866L12.1556 9.05277L11.9646 9.14889L11.7746 9.24701L11.5854 9.34712L11.3971 9.44921L11.2097 9.55328L11.0232 9.65931L10.8377 9.7673L10.6532 9.87725L10.4697 9.98912L10.2872 10.1029L10.1057 10.2187L9.92533 10.3363L9.74597 10.4559L9.56774 10.5773L9.39062 10.7006L9.21461 10.8258L9.03975 10.9528L8.86608 11.0817L8.69359 11.2125L8.52231 11.345L8.35226 11.4794L8.18344 11.6155L8.01588 11.7535L7.84963 11.8932L7.68466 12.0348L7.52099 12.178L7.35868 12.323L7.19772 12.4698L7.03814 12.6182L6.87994 12.7683L6.72313 12.9202L6.56776 13.0737L6.41383 13.2289L6.26134 13.3857L6.11034 13.5441L5.96084 13.7042L5.81283 13.8659L5.66635 14.0291L5.52143 14.194L5.37804 14.3604L5.23623 14.5283L5.09602 14.6978L4.95742 14.8687L4.82042 15.0412L4.68505 15.2152L4.55133 15.3906L4.41931 15.5675L4.28895 15.7458L4.1603 15.9255L4.03335 16.1066L3.90813 16.2891L3.78465 16.473L3.66292 16.6582L3.54298 16.8447L3.42479 17.0326L3.30842 17.2218L3.19387 17.4122L3.08111 17.6039L2.97021 17.7968L2.86117 17.9909L2.75396 18.1863L2.64863 18.3829L2.54521 18.5806L2.44369 18.7794L2.34406 18.9794L2.24639 19.1805L2.15063 19.3827L2.05681 19.586L1.96498 19.7903L1.87511 19.9956L1.78721 20.202L1.7013 20.4094L1.61742 20.6177L1.53554 20.827L1.45567 21.0372L1.37787 21.2483L1.30209 21.4603L1.22835 21.6733L1.15671 21.887L1.08712 22.1016L1.01961 22.317L0.954203 22.5331L0.890894 22.7501L0.829707 22.9677L0.770609 23.1862L0.713641 23.4053L0.65882 23.6251L0.606139 23.8455L0.555602 24.0666L0.507208 24.2884L0.460986 24.5107L0.416945 24.7335L0.375067 24.957L0.335375 25.181L0.297873 25.4054L0.26256 25.6304L0.229449 25.8559L0.198542 26.0817L0.169848 26.308L0.143381 26.5347L0.119127 26.7617L0.0970899 26.9891L0.0772916 27.2169L0.0597364 27.4449L0.0444089 27.6732L0.0313245 27.9018L0.0204869 28.1307L0.0119038 28.3597L0.00556756 28.5889L0.00148963 28.8183L-0.000333816 29.0478L0.000101039 29.2775L0.00280945 29.5073L0.00777617 29.7371L0.0150126 29.967L0.024515 30.197L0.0362948 30.4269L0.0503329 30.6568L0.0666521 30.8867L0.0852297 31.1165L0.106092 31.3462L0.129228 31.5759L0.154627 31.8054L0.182302 32.0347L0.212248 32.2638L0.244466 32.4928L0.278959 32.7215L0.315725 32.95L0.354745 33.1782L0.396032 33.4061L0.439584 33.6337L0.485391 33.8609L0.533487 34.0879L0.583814 34.3143L0.636392 34.5403L0.691232 34.766L0.748331 34.9912L0.807653 35.2159L0.869218 35.4401L0.933027 35.6638L0.999063 35.8869L1.06733 36.1094L1.13781 36.3314L1.21052 36.5527L1.28544 36.7734L1.36257 36.9934L1.4419 37.2127L1.52342 37.4313L1.60714 37.6492L1.69304 37.8663L1.78111 38.0827L1.87136 38.2982L1.96377 38.5129L2.05834 38.7267L2.15504 38.9397L2.2539 39.1518L2.3549 39.363L2.45801 39.5733L2.56324 39.7825L2.67058 39.9908L2.78004 40.1981L2.89158 40.4044L3.00517 40.6096L3.12086 40.8138L3.2386 41.0168L3.3584 41.2188L3.48026 41.4196L3.60416 41.6193L3.73003 41.8177L3.85794 42.015L3.98785 42.2111L4.11974 42.4059L4.25362 42.5994L4.38946 42.7917L4.52728 42.9827L4.66703 43.1724L4.80868 43.3606L4.95228 43.5476L5.09777 43.7331L5.24513 43.9173L5.39442 44.1L5.54554 44.2813L5.69852 44.4611L5.85336 44.6395L6.00998 44.8163L6.16845 44.9916L6.32873 45.1654L6.49075 45.3375L6.65454 45.5082L6.8201 45.6772L6.9874 45.8446L7.15644 46.0104L7.32715 46.1745L7.49955 46.3369L7.67366 46.4977L7.84941 46.6567L8.02682 46.814L8.20584 46.9696L8.38649 47.1234L8.56873 47.2754L8.75248 47.4256L8.93788 47.5741L9.1248 47.7207L9.31322 47.8654L9.50315 48.0083L9.6946 48.1493L9.88752 48.2884L10.0819 48.4256L10.2777 48.5609L10.4749 48.6942L10.6735 48.8256L10.8735 48.955L11.0749 49.0824L11.2776 49.2078L11.4816 49.3312L11.6869 49.4525L11.8935 49.5719L12.1014 49.6891L12.3105 49.8043L12.5209 49.9174L12.7324 50.0284L12.9451 50.1372L13.1591 50.244L13.3741 50.3486L13.5903 50.451L13.8075 50.5513L14.0259 50.6495L14.2453 50.7454L14.4657 50.8391L14.6872 50.9306L14.9096 51.0199L15.1331 51.1069L15.3575 51.1917L15.5828 51.2743L15.809 51.3545L16.0362 51.4325L16.2641 51.5082L16.493 51.5817L16.7227 51.6528L16.953 51.7215L17.1843 51.788L17.4163 51.8521L17.649 51.9139L17.8824 51.9734L18.1165 52.0304L18.3513 52.0851L18.5867 52.1374L18.8227 52.1874L19.0593 52.2349L19.2965 52.2801L19.5342 52.3229L19.7724 52.3632L20.0111 52.4011L20.2504 52.4366L20.4901 52.4697L20.7301 52.5003L20.9706 52.5285L21.2115 52.5542L21.4527 52.5775L21.6943 52.5983L21.9361 52.6167L22.1783 52.6326L22.4207 52.6461L22.6633 52.657L22.9062 52.6655L23.1492 52.6716L23.3924 52.6751L23.6357 52.6761L23.8792 52.6747L24.1227 52.6708L24.3663 52.6644L24.6099 52.6555L24.8536 52.6441L25.0972 52.6302L25.3408 52.6138L25.5843 52.5949L25.8277 52.5735L26.0711 52.5496L26.3143 52.5233L26.5574 52.4944L26.8002 52.463L27.0429 52.4292L27.2853 52.3928L27.5275 52.3539L27.7693 52.3126L28.0109 52.2688L28.2521 52.2225L28.493 52.1737L28.7335 52.1224L28.9736 52.0686L29.2133 52.0124L29.4525 51.9537L29.6912 51.8925L29.9294 51.8289L30.1671 51.7628L30.4042 51.6942L30.6408 51.6232L30.8767 51.5497L31.1121 51.4738L31.3467 51.3955L31.5808 51.3148L31.8141 51.2316L32.0466 51.146L32.2785 51.0579L32.5095 50.9675L32.7398 50.8747L32.9692 50.7795L33.1978 50.6819L33.4255 50.5819L33.6523 50.4796L33.8782 50.3749L34.1032 50.2679L34.3272 50.1585L34.5503 50.0468L34.7723 49.9327L34.9932 49.8164L35.2132 49.6977L35.432 49.5768L35.6497 49.4535L35.8664 49.328L36.0818 49.2002L36.2961 49.0702L36.5092 48.9379L36.7211 48.8034L36.9317 48.6667L37.1411 48.5278L37.3492 48.3867L37.556 48.2433L37.7614 48.0979L37.9656 47.9502L38.1683 47.8005L38.3696 47.6486L38.5695 47.4945L38.768 47.3384L38.9651 47.1802L39.1606 47.0199L39.3547 46.8575L39.5472 46.6931L39.7382 46.5267L39.9276 46.3582L40.1154 46.1878L40.3017 46.0154L40.4863 45.841L40.6693 45.6646L40.8506 45.4863L41.0302 45.306L41.2081 45.1239L41.3843 44.9399L41.5587 44.754L41.7314 44.5662L41.9023 44.3766L42.0714 44.1852L42.2387 43.992L42.4042 43.797L42.5678 43.6003L42.7295 43.4017L42.8894 43.2015L43.0473 42.9995L43.2033 42.7959L43.3573 42.5906L43.5094 42.3836L43.6595 42.175L43.8077 41.9647L43.9538 41.7529L44.0979 41.5395L44.2399 41.3246L44.3799 41.1081L44.5178 40.8901L44.6536 40.6706L44.7873 40.4496L44.9189 40.2272L45.0483 40.0033L45.1756 39.7781L45.3007 39.5514L45.4237 39.3234L45.5444 39.094L45.6629 38.8633L45.7792 38.6314L45.8933 38.3981L46.0051 38.1636L46.1147 37.9278L46.2219 37.6908L46.3269 37.4527L46.4296 37.2134L46.53 36.9729L46.628 36.7313L46.7237 36.4887L46.817 36.2449L46.908 36.0001L46.9966 35.7543L47.0828 35.5075L47.1666 35.2597L47.2481 35.0109L47.3271 34.7613L47.4036 34.5107L47.4778 34.2592L47.5495 34.0069L47.6187 33.7538L47.6855 33.4998L47.7498 33.2451L47.8116 32.9896L47.8709 32.7334L47.9277 32.4765L47.982 32.2189L48.0338 31.9606L48.0831 31.7017L48.1299 31.4422L48.1741 31.1822L48.2157 30.9216L48.2549 30.6604L48.2914 30.3988L48.3254 30.1366L48.3569 29.8741L48.3857 29.6111L48.412 29.3477L48.4357 29.0839L48.4569 28.8198L48.4754 28.5554L48.4913 28.2907L48.5047 28.0257L48.5154 27.7605L48.5235 27.4951L48.529 27.2295L48.5319 26.9637L48.5322 26.6978L48.5301 26.455L48.5301 6.88338L43.6323 6.88338Z" fill="#6792E4"/>
<path d="M45.8609 0.243164L53.9015 7.09257H37.8203L45.8609 0.243164Z" fill="#6792E4"/>
<path d="M61.3564 15.4371L62.743 13.9362C62.9908 14.203 63.3195 14.4651 63.7293 14.7224C64.1486 14.9797 64.6346 15.1083 65.1874 15.1083C65.4065 15.1083 65.6209 15.0702 65.8306 14.994C66.0403 14.9082 66.2118 14.7891 66.3452 14.6366C66.4881 14.4746 66.5596 14.284 66.5596 14.0648C66.5596 13.7123 66.3881 13.4359 66.045 13.2358C65.7019 13.0356 65.1588 12.8451 64.4155 12.664C63.6912 12.4829 63.0908 12.1637 62.6144 11.7063C62.1379 11.2488 61.8996 10.658 61.8996 9.93376C61.8996 9.4001 62.0283 8.91409 62.2856 8.47573C62.5429 8.02784 62.9288 7.67048 63.4434 7.40365C63.958 7.12729 64.606 6.98911 65.3875 6.98911C66.0355 6.98911 66.5787 7.07488 67.017 7.24641C67.4649 7.40841 67.8223 7.58947 68.0891 7.7896C68.3559 7.98972 68.5418 8.15172 68.6466 8.27561L67.403 9.64787C67.1933 9.48587 66.917 9.30481 66.5739 9.10468C66.2308 8.89503 65.8258 8.79021 65.3589 8.79021C65.0539 8.79021 64.768 8.88074 64.5012 9.0618C64.2439 9.23333 64.1153 9.44299 64.1153 9.69075C64.1153 10.0148 64.2868 10.2768 64.6299 10.4769C64.9729 10.6771 65.4447 10.8438 66.045 10.9773C66.512 11.0916 66.9599 11.2631 67.3887 11.4919C67.8271 11.7206 68.1844 12.0398 68.4608 12.4496C68.7371 12.8594 68.8753 13.393 68.8753 14.0506C68.8753 14.6223 68.7133 15.1322 68.3893 15.5801C68.0653 16.0279 67.6269 16.3805 67.0742 16.6378C66.5215 16.8951 65.9021 17.0238 65.2159 17.0238C64.587 17.0238 64.0295 16.9476 63.5435 16.7951C63.0575 16.6426 62.6334 16.4473 62.2713 16.209C61.9092 15.9612 61.6042 15.7039 61.3564 15.4371ZM64.5298 6.53169L62.9145 4.30176H64.6299L65.3875 5.37384L66.1594 4.30176H67.8604L66.2451 6.53169H64.5298Z" fill="black"/>
<path d="M70.3022 16.7808V7.24641H72.3606V12.1923L74.4047 10.0767H76.7347L74.3332 12.5496L77.0634 16.7808H74.6763L72.9609 13.9505L72.3606 14.5652V16.7808H70.3022Z" fill="black"/>
<path d="M77.1911 13.4216C77.1911 12.7641 77.3436 12.1637 77.6485 11.6205C77.9535 11.0773 78.3728 10.6485 78.9064 10.334C79.4496 10.01 80.0786 9.84799 80.7933 9.84799C81.508 9.84799 82.1322 10.01 82.6659 10.334C83.209 10.6485 83.6283 11.0773 83.9238 11.6205C84.2287 12.1637 84.3812 12.7641 84.3812 13.4216C84.3812 14.0791 84.2287 14.6795 83.9238 15.2227C83.6283 15.7659 83.209 16.1995 82.6659 16.5235C82.1322 16.8475 81.508 17.0095 80.7933 17.0095C80.0786 17.0095 79.4496 16.8475 78.9064 16.5235C78.3728 16.1995 77.9535 15.7659 77.6485 15.2227C77.3436 14.6795 77.1911 14.0791 77.1911 13.4216ZM80.7933 15.2227C81.1459 15.2227 81.4365 15.1369 81.6652 14.9654C81.9035 14.7939 82.0845 14.5699 82.2084 14.2936C82.3323 14.0172 82.3943 13.7265 82.3943 13.4216C82.3943 13.1167 82.3323 12.8308 82.2084 12.5639C82.0845 12.2876 81.9035 12.0636 81.6652 11.8921C81.4365 11.7206 81.1459 11.6348 80.7933 11.6348C80.4502 11.6348 80.1548 11.7206 79.907 11.8921C79.6688 12.0636 79.4877 12.2876 79.3638 12.5639C79.24 12.8308 79.178 13.1167 79.178 13.4216C79.178 13.7265 79.24 14.0172 79.3638 14.2936C79.4877 14.5699 79.6688 14.7939 79.907 14.9654C80.1548 15.1369 80.4502 15.2227 80.7933 15.2227Z" fill="black"/>
<path d="M85.6017 16.7808V7.24641H87.6601V16.7808H85.6017Z" fill="black"/>
<path d="M93.1205 16.7808L93.0634 16.1518C92.5869 16.7046 91.9103 16.9809 91.0336 16.9809C90.7191 16.9809 90.3856 16.919 90.033 16.7951C89.6899 16.6807 89.3945 16.4711 89.1467 16.1661C88.8989 15.8612 88.775 15.4419 88.775 14.9082C88.775 14.3841 88.9085 13.941 89.1753 13.5788C89.4516 13.2167 89.8233 12.9451 90.2903 12.7641C90.7572 12.5735 91.2813 12.4782 91.8626 12.4782C92.1009 12.4782 92.3391 12.4829 92.5774 12.4925C92.8251 12.502 92.9871 12.5163 93.0634 12.5353V12.3924C93.0634 12.0493 92.93 11.8063 92.6631 11.6634C92.4058 11.5109 92.1104 11.4347 91.7769 11.4347C91.329 11.4347 90.9526 11.4919 90.6476 11.6062C90.3427 11.7206 90.0854 11.8492 89.8757 11.9922L89.0323 10.7342C89.3087 10.5151 89.6851 10.3149 90.1616 10.1339C90.6381 9.94329 91.2718 9.84799 92.0628 9.84799C93.0824 9.84799 93.8353 10.1244 94.3213 10.6771C94.8073 11.2203 95.0503 11.954 95.0503 12.8784V16.7808H93.1205ZM93.0634 14.365V13.8218C93.0157 13.8123 92.9252 13.8028 92.7918 13.7933C92.6584 13.7742 92.5059 13.7647 92.3344 13.7647C91.7626 13.7647 91.3576 13.8457 91.1193 14.0077C90.8811 14.1697 90.762 14.3984 90.762 14.6938C90.762 15.2465 91.0955 15.5229 91.7626 15.5229C92.0866 15.5229 92.382 15.4228 92.6488 15.2227C92.9252 15.0226 93.0634 14.7367 93.0634 14.365Z" fill="black"/>
<path d="M99.1144 19.6397V10.0767H101.087C101.106 10.2006 101.12 10.3245 101.13 10.4484C101.139 10.5627 101.149 10.6818 101.158 10.8057C101.378 10.5294 101.659 10.3197 102.002 10.1768C102.345 10.0243 102.702 9.94805 103.074 9.94805C103.731 9.94805 104.279 10.1101 104.718 10.4341C105.156 10.7581 105.485 11.1821 105.704 11.7063C105.923 12.2304 106.033 12.7879 106.033 13.3787C106.033 13.9981 105.928 14.5366 105.718 14.994C105.518 15.4514 105.247 15.8278 104.904 16.1232C104.561 16.4187 104.184 16.6378 103.774 16.7808C103.365 16.9237 102.95 16.9952 102.531 16.9952C102.207 16.9952 101.94 16.9666 101.73 16.9094C101.521 16.8523 101.33 16.7951 101.158 16.7379V19.6397H99.1144ZM101.158 13.2215V15.0083C101.435 15.1893 101.83 15.2799 102.345 15.2799C102.85 15.2799 103.245 15.1083 103.531 14.7653C103.827 14.4222 103.974 13.9743 103.974 13.4216C103.974 13.1262 103.927 12.8498 103.832 12.5925C103.746 12.3257 103.598 12.1113 103.388 11.9493C103.188 11.7873 102.917 11.7063 102.574 11.7063C102.116 11.7063 101.764 11.8635 101.516 12.178C101.278 12.4925 101.158 12.8403 101.158 13.2215Z" fill="black"/>
<path d="M107.253 16.7808V10.0767H109.225L109.297 10.9201C109.468 10.6914 109.702 10.4722 109.997 10.2625C110.302 10.0529 110.693 9.94805 111.169 9.94805C111.35 9.94805 111.503 9.95758 111.627 9.97664C111.76 9.9957 111.889 10.0291 112.013 10.0767L111.684 11.8921C111.474 11.8254 111.227 11.792 110.941 11.792C110.455 11.792 110.059 11.9397 109.754 12.2352C109.459 12.5211 109.311 12.9308 109.311 13.4645V16.7808H107.253Z" fill="black"/>
<path d="M118.074 14.751L118.918 16.0518C118.822 16.1185 118.651 16.2281 118.403 16.3805C118.165 16.533 117.846 16.676 117.445 16.8094C117.045 16.9428 116.554 17.0095 115.973 17.0095C115.211 17.0095 114.553 16.857 114 16.5521C113.448 16.2471 113.024 15.8231 112.728 15.2799C112.433 14.7367 112.285 14.1125 112.285 13.4073C112.285 12.7783 112.418 12.1923 112.685 11.6491C112.962 11.1059 113.357 10.6723 113.872 10.3483C114.396 10.0148 115.02 9.84799 115.744 9.84799C116.469 9.84799 117.074 10.0148 117.56 10.3483C118.055 10.6723 118.427 11.125 118.675 11.7063C118.932 12.278 119.061 12.9404 119.061 13.6932V14.0363H114.286C114.296 14.3889 114.458 14.7033 114.772 14.9797C115.087 15.2561 115.511 15.3942 116.044 15.3942C116.578 15.3942 117.012 15.318 117.345 15.1655C117.679 15.0035 117.922 14.8653 118.074 14.751ZM114.286 12.7212H117.117C117.117 12.5306 117.064 12.34 116.959 12.1494C116.864 11.9493 116.712 11.7825 116.502 11.6491C116.302 11.5157 116.044 11.449 115.73 11.449C115.415 11.449 115.149 11.5157 114.929 11.6491C114.72 11.7825 114.558 11.9493 114.443 12.1494C114.339 12.34 114.286 12.5306 114.286 12.7212Z" fill="black"/>
<path d="M61.8568 31.373V24.6689H63.8294L63.9009 25.4122C64.1105 25.1549 64.3773 24.9405 64.7013 24.769C65.0253 24.5975 65.4065 24.5117 65.8449 24.5117C66.3786 24.5117 66.8026 24.6117 67.1171 24.8119C67.4316 25.012 67.6651 25.2216 67.8175 25.4408C68.0939 25.1454 68.4274 24.9167 68.8181 24.7547C69.2184 24.5927 69.6329 24.5117 70.0617 24.5117C70.9099 24.5117 71.5627 24.7595 72.0201 25.255C72.4775 25.741 72.7062 26.3986 72.7062 27.2276V31.373H70.6478V27.5564C70.6478 27.1657 70.5573 26.8607 70.3762 26.6416C70.2047 26.4128 69.9426 26.2985 69.59 26.2985C69.1993 26.2985 68.8801 26.4367 68.6323 26.713C68.3941 26.9894 68.2749 27.342 68.2749 27.7708V31.373H66.288V27.5564C66.288 27.1657 66.1975 26.8607 66.0164 26.6416C65.8449 26.4128 65.5828 26.2985 65.2302 26.2985C64.849 26.2985 64.5346 26.4367 64.2868 26.713C64.039 26.9894 63.9151 27.342 63.9151 27.7708V31.373H61.8568Z" fill="black"/>
<path d="M74.1826 23.6826V21.8386H76.3839V23.6826H74.1826ZM74.254 31.373V24.6689H76.3124V31.373H74.254Z" fill="black"/>
<path d="M77.8821 31.373V24.6689H79.8548L79.9262 25.4122C80.1359 25.1549 80.4027 24.9405 80.7267 24.769C81.0507 24.5975 81.4319 24.5117 81.8703 24.5117C82.4039 24.5117 82.828 24.6117 83.1425 24.8119C83.457 25.012 83.6904 25.2216 83.8429 25.4408C84.1193 25.1454 84.4528 24.9167 84.8435 24.7547C85.2438 24.5927 85.6583 24.5117 86.0871 24.5117C86.9353 24.5117 87.5881 24.7595 88.0455 25.255C88.5029 25.741 88.7316 26.3986 88.7316 27.2276V31.373H86.6732V27.5564C86.6732 27.1657 86.5827 26.8607 86.4016 26.6416C86.2301 26.4128 85.968 26.2985 85.6154 26.2985C85.2247 26.2985 84.9055 26.4367 84.6577 26.713C84.4195 26.9894 84.3003 27.342 84.3003 27.7708V31.373H82.3134V27.5564C82.3134 27.1657 82.2229 26.8607 82.0418 26.6416C81.8703 26.4128 81.6082 26.2985 81.2556 26.2985C80.8744 26.2985 80.56 26.4367 80.3122 26.713C80.0644 26.9894 79.9405 27.342 79.9405 27.7708V31.373H77.8821Z" fill="black"/>
<path d="M89.9221 28.0138C89.9221 27.3563 90.0745 26.7559 90.3795 26.2127C90.6844 25.6695 91.1037 25.2407 91.6374 24.9262C92.1806 24.6022 92.8095 24.4402 93.5243 24.4402C94.239 24.4402 94.8632 24.6022 95.3968 24.9262C95.94 25.2407 96.3593 25.6695 96.6547 26.2127C96.9597 26.7559 97.1122 27.3563 97.1122 28.0138C97.1122 28.6714 96.9597 29.2717 96.6547 29.8149C96.3593 30.3581 95.94 30.7917 95.3968 31.1157C94.8632 31.4397 94.239 31.6017 93.5243 31.6017C92.8095 31.6017 92.1806 31.4397 91.6374 31.1157C91.1037 30.7917 90.6844 30.3581 90.3795 29.8149C90.0745 29.2717 89.9221 28.6714 89.9221 28.0138ZM93.5243 29.8149C93.8769 29.8149 94.1675 29.7292 94.3962 29.5576C94.6345 29.3861 94.8155 29.1621 94.9394 28.8858C95.0633 28.6094 95.1252 28.3188 95.1252 28.0138C95.1252 27.7089 95.0633 27.423 94.9394 27.1562C94.8155 26.8798 94.6345 26.6559 94.3962 26.4843C94.1675 26.3128 93.8769 26.227 93.5243 26.227C93.1812 26.227 92.8858 26.3128 92.638 26.4843C92.3998 26.6559 92.2187 26.8798 92.0948 27.1562C91.9709 27.423 91.909 27.7089 91.909 28.0138C91.909 28.3188 91.9709 28.6094 92.0948 28.8858C92.2187 29.1621 92.3998 29.3861 92.638 29.5576C92.8858 29.7292 93.1812 29.8149 93.5243 29.8149Z" fill="black"/>
<path d="M98.3327 31.373V24.6689H100.305L100.377 25.5123C100.548 25.2836 100.782 25.0644 101.077 24.8548C101.382 24.6451 101.773 24.5403 102.249 24.5403C102.43 24.5403 102.583 24.5498 102.707 24.5689C102.84 24.5879 102.969 24.6213 103.093 24.6689L102.764 26.4843C102.554 26.4176 102.306 26.3843 102.021 26.3843C101.535 26.3843 101.139 26.532 100.834 26.8274C100.539 27.1133 100.391 27.523 100.391 28.0567V31.373H98.3327Z" fill="black"/>
<path d="M103.93 23.6826V21.8386H106.131V23.6826H103.93ZM104.002 31.373V24.6689H106.06V31.373H104.002Z" fill="black"/>
<path d="M111.575 31.373L111.518 30.7441C111.041 31.2968 110.365 31.5731 109.488 31.5731C109.173 31.5731 108.84 31.5112 108.487 31.3873C108.144 31.2729 107.849 31.0633 107.601 30.7583C107.353 30.4534 107.229 30.0341 107.229 29.5004C107.229 28.9763 107.363 28.5332 107.63 28.1711C107.906 27.8089 108.278 27.5373 108.745 27.3563C109.212 27.1657 109.736 27.0704 110.317 27.0704C110.555 27.0704 110.793 27.0752 111.032 27.0847C111.279 27.0942 111.441 27.1085 111.518 27.1276V26.9846C111.518 26.6416 111.384 26.3986 111.117 26.2556C110.86 26.1031 110.565 26.0269 110.231 26.0269C109.783 26.0269 109.407 26.0841 109.102 26.1984C108.797 26.3128 108.54 26.4414 108.33 26.5844L107.487 25.3265C107.763 25.1073 108.139 24.9072 108.616 24.7261C109.092 24.5355 109.726 24.4402 110.517 24.4402C111.537 24.4402 112.29 24.7166 112.776 25.2693C113.262 25.8125 113.505 26.5463 113.505 27.4706V31.373H111.575ZM111.518 28.9573V28.4141C111.47 28.4045 111.38 28.395 111.246 28.3855C111.113 28.3664 110.96 28.3569 110.789 28.3569C110.217 28.3569 109.812 28.4379 109.574 28.5999C109.335 28.7619 109.216 28.9906 109.216 29.286C109.216 29.8387 109.55 30.1151 110.217 30.1151C110.541 30.1151 110.836 30.015 111.103 29.8149C111.38 29.6148 111.518 29.3289 111.518 28.9573Z" fill="black"/>
<path d="M119.632 31.373L119.546 30.7012C119.336 30.9394 119.065 31.1443 118.731 31.3158C118.407 31.4874 118.036 31.5731 117.616 31.5731C117.073 31.5731 116.578 31.435 116.13 31.1586C115.691 30.8727 115.339 30.4725 115.072 29.9579C114.815 29.4337 114.686 28.8191 114.686 28.1139C114.686 27.5135 114.791 26.9894 115.001 26.5415C115.21 26.0841 115.487 25.7077 115.83 25.4122C116.182 25.1168 116.563 24.8976 116.973 24.7547C117.383 24.6022 117.788 24.526 118.188 24.526C118.512 24.526 118.765 24.5498 118.946 24.5975C119.136 24.6356 119.322 24.688 119.503 24.7547V21.8386H121.547V31.373H119.632ZM119.503 28.3426V26.5129C119.236 26.3509 118.874 26.2699 118.417 26.2699C117.893 26.2699 117.483 26.4462 117.188 26.7988C116.902 27.1514 116.759 27.604 116.759 28.1568C116.759 28.6428 116.878 29.043 117.116 29.3575C117.364 29.6624 117.721 29.8149 118.188 29.8149C118.655 29.8149 118.989 29.6672 119.189 29.3718C119.398 29.0668 119.503 28.7238 119.503 28.3426Z" fill="black"/>
<path d="M123.083 31.373V24.6689H125.056L125.113 25.3979C125.332 25.1311 125.623 24.9167 125.985 24.7547C126.347 24.5927 126.719 24.5117 127.1 24.5117C127.862 24.5117 128.472 24.7404 128.929 25.1978C129.387 25.6552 129.616 26.3318 129.616 27.2276V31.373H127.557V27.5135C127.557 27.1419 127.462 26.8464 127.271 26.6273C127.09 26.4081 126.833 26.2985 126.499 26.2985C126.051 26.2985 125.708 26.4462 125.47 26.7416C125.241 27.037 125.127 27.3801 125.127 27.7708V31.373H123.083Z" fill="black"/>
<path d="M136.584 29.3432L137.428 30.644C137.332 30.7107 137.161 30.8203 136.913 30.9728C136.675 31.1252 136.356 31.2682 135.955 31.4016C135.555 31.535 135.064 31.6017 134.483 31.6017C133.721 31.6017 133.063 31.4492 132.511 31.1443C131.958 30.8394 131.534 30.4153 131.238 29.8721C130.943 29.3289 130.795 28.7047 130.795 27.9995C130.795 27.3706 130.929 26.7845 131.195 26.2413C131.472 25.6981 131.867 25.2645 132.382 24.9405C132.906 24.607 133.53 24.4402 134.254 24.4402C134.979 24.4402 135.584 24.607 136.07 24.9405C136.565 25.2645 136.937 25.7172 137.185 26.2985C137.442 26.8703 137.571 27.5326 137.571 28.2854V28.6285H132.796C132.806 28.9811 132.968 29.2956 133.282 29.5719C133.597 29.8483 134.021 29.9865 134.555 29.9865C135.088 29.9865 135.522 29.9102 135.855 29.7577C136.189 29.5957 136.432 29.4576 136.584 29.3432ZM132.796 27.3134H135.627C135.627 27.1228 135.574 26.9322 135.469 26.7416C135.374 26.5415 135.222 26.3747 135.012 26.2413C134.812 26.1079 134.555 26.0412 134.24 26.0412C133.926 26.0412 133.659 26.1079 133.44 26.2413C133.23 26.3747 133.068 26.5415 132.954 26.7416C132.849 26.9322 132.796 27.1228 132.796 27.3134Z" fill="black"/>
<path d="M61.871 45.9652V39.2611H63.8437L63.9009 39.9902C64.12 39.7233 64.4107 39.5089 64.7728 39.3469C65.1349 39.1849 65.5066 39.1039 65.8878 39.1039C66.6501 39.1039 67.26 39.3326 67.7175 39.79C68.1749 40.2475 68.4036 40.9241 68.4036 41.8199V45.9652H66.3452V42.1057C66.3452 41.7341 66.2499 41.4387 66.0593 41.2195C65.8782 41.0003 65.6209 40.8907 65.2874 40.8907C64.8395 40.8907 64.4965 41.0384 64.2582 41.3338C64.0295 41.6293 63.9151 41.9723 63.9151 42.363V45.9652H61.871Z" fill="black"/>
<path d="M73.8287 45.9652L73.7715 45.3363C73.295 45.889 72.6184 46.1654 71.7417 46.1654C71.4272 46.1654 71.0937 46.1034 70.7411 45.9795C70.398 45.8652 70.1026 45.6555 69.8548 45.3506C69.607 45.0456 69.4832 44.6263 69.4832 44.0927C69.4832 43.5685 69.6166 43.1254 69.8834 42.7633C70.1598 42.4012 70.5314 42.1296 70.9984 41.9485C71.4653 41.7579 71.9894 41.6626 72.5708 41.6626C72.809 41.6626 73.0472 41.6674 73.2855 41.6769C73.5332 41.6864 73.6952 41.7007 73.7715 41.7198V41.5768C73.7715 41.2338 73.6381 40.9908 73.3712 40.8478C73.1139 40.6954 72.8185 40.6191 72.485 40.6191C72.0371 40.6191 71.6607 40.6763 71.3557 40.7907C71.0508 40.905 70.7935 41.0337 70.5838 41.1766L69.7405 39.9187C70.0168 39.6995 70.3932 39.4994 70.8697 39.3183C71.3462 39.1277 71.9799 39.0324 72.7709 39.0324C73.7905 39.0324 74.5434 39.3088 75.0294 39.8615C75.5154 40.4047 75.7584 41.1385 75.7584 42.0629V45.9652H73.8287ZM73.7715 43.5495V43.0063C73.7238 42.9968 73.6333 42.9872 73.4999 42.9777C73.3665 42.9586 73.214 42.9491 73.0425 42.9491C72.4707 42.9491 72.0657 43.0301 71.8274 43.1921C71.5892 43.3541 71.4701 43.5828 71.4701 43.8783C71.4701 44.431 71.8036 44.7073 72.4707 44.7073C72.7947 44.7073 73.0901 44.6073 73.3569 44.4071C73.6333 44.207 73.7715 43.9211 73.7715 43.5495Z" fill="black"/>
<path d="M81.8857 45.9652L81.7999 45.2934C81.5903 45.5316 81.3187 45.7365 80.9851 45.9081C80.6611 46.0796 80.2895 46.1654 79.8702 46.1654C79.327 46.1654 78.8314 46.0272 78.3836 45.7508C77.9452 45.4649 77.5926 45.0647 77.3258 44.5501C77.0685 44.026 76.9398 43.4113 76.9398 42.7061C76.9398 42.1057 77.0446 41.5816 77.2543 41.1337C77.464 40.6763 77.7403 40.2999 78.0834 40.0045C78.436 39.709 78.8172 39.4899 79.2269 39.3469C79.6367 39.1944 80.0417 39.1182 80.442 39.1182C80.766 39.1182 81.0185 39.142 81.1996 39.1897C81.3902 39.2278 81.576 39.2802 81.757 39.3469V36.4309H83.8011V45.9652H81.8857ZM81.757 42.9348V41.1051C81.4902 40.9431 81.1281 40.8621 80.6707 40.8621C80.1465 40.8621 79.7368 41.0384 79.4413 41.391C79.1555 41.7436 79.0125 42.1963 79.0125 42.749C79.0125 43.235 79.1316 43.6352 79.3699 43.9497C79.6176 44.2547 79.975 44.4071 80.442 44.4071C80.9089 44.4071 81.2424 44.2594 81.4426 43.964C81.6522 43.6591 81.757 43.316 81.757 42.9348Z" fill="black"/>
<path d="M89.2678 45.9652L89.2106 45.3363C88.7341 45.889 88.0575 46.1654 87.1808 46.1654C86.8663 46.1654 86.5328 46.1034 86.1802 45.9795C85.8371 45.8652 85.5417 45.6555 85.2939 45.3506C85.0461 45.0456 84.9223 44.6263 84.9223 44.0927C84.9223 43.5685 85.0557 43.1254 85.3225 42.7633C85.5989 42.4012 85.9705 42.1296 86.4375 41.9485C86.9044 41.7579 87.4285 41.6626 88.0098 41.6626C88.2481 41.6626 88.4863 41.6674 88.7246 41.6769C88.9723 41.6864 89.1343 41.7007 89.2106 41.7198V41.5768C89.2106 41.2338 89.0772 40.9908 88.8103 40.8478C88.553 40.6954 88.2576 40.6191 87.9241 40.6191C87.4762 40.6191 87.0998 40.6763 86.7948 40.7907C86.4899 40.905 86.2326 41.0337 86.0229 41.1766L85.1796 39.9187C85.4559 39.6995 85.8323 39.4994 86.3088 39.3183C86.7853 39.1277 87.419 39.0324 88.21 39.0324C89.2296 39.0324 89.9825 39.3088 90.4685 39.8615C90.9545 40.4047 91.1975 41.1385 91.1975 42.0629V45.9652H89.2678ZM89.2106 43.5495V43.0063C89.1629 42.9968 89.0724 42.9872 88.939 42.9777C88.8056 42.9586 88.6531 42.9491 88.4816 42.9491C87.9098 42.9491 87.5048 43.0301 87.2665 43.1921C87.0283 43.3541 86.9092 43.5828 86.9092 43.8783C86.9092 44.431 87.2427 44.7073 87.9098 44.7073C88.2338 44.7073 88.5292 44.6073 88.796 44.4071C89.0724 44.207 89.2106 43.9211 89.2106 43.5495Z" fill="black"/>
<path d="M92.6934 45.9652V39.2611H94.666L94.7232 39.9902C94.9424 39.7233 95.233 39.5089 95.5952 39.3469C95.9573 39.1849 96.3289 39.1039 96.7101 39.1039C97.4725 39.1039 98.0824 39.3326 98.5398 39.79C98.9972 40.2475 99.2259 40.9241 99.2259 41.8199V45.9652H97.1675V42.1057C97.1675 41.7341 97.0723 41.4387 96.8817 41.2195C96.7006 41.0003 96.4433 40.8907 96.1098 40.8907C95.6619 40.8907 95.3188 41.0384 95.0806 41.3338C94.8518 41.6293 94.7375 41.9723 94.7375 42.363V45.9652H92.6934Z" fill="black"/>
<path d="M106.195 43.9354L107.038 45.2362C106.943 45.3029 106.771 45.4125 106.524 45.565C106.285 45.7175 105.966 45.8604 105.566 45.9938C105.166 46.1272 104.675 46.1939 104.094 46.1939C103.331 46.1939 102.674 46.0415 102.121 45.7365C101.568 45.4316 101.144 45.0075 100.849 44.4643C100.553 43.9211 100.406 43.2969 100.406 42.5918C100.406 41.9628 100.539 41.3767 100.806 40.8335C101.082 40.2903 101.478 39.8568 101.992 39.5327C102.516 39.1992 103.141 39.0324 103.865 39.0324C104.589 39.0324 105.194 39.1992 105.68 39.5327C106.176 39.8568 106.547 40.3094 106.795 40.8907C107.052 41.4625 107.181 42.1248 107.181 42.8776V43.2207H102.407C102.416 43.5733 102.578 43.8878 102.893 44.1641C103.207 44.4405 103.631 44.5787 104.165 44.5787C104.699 44.5787 105.132 44.5024 105.466 44.35C105.799 44.188 106.042 44.0498 106.195 43.9354ZM102.407 41.9056H105.237C105.237 41.715 105.185 41.5244 105.08 41.3338C104.985 41.1337 104.832 40.9669 104.622 40.8335C104.422 40.7001 104.165 40.6334 103.851 40.6334C103.536 40.6334 103.269 40.7001 103.05 40.8335C102.84 40.9669 102.678 41.1337 102.564 41.3338C102.459 41.5244 102.407 41.715 102.407 41.9056ZM102.979 38.2462L103.665 36.2164H105.695L104.494 38.2462H102.979Z" fill="black"/>
<path d="M115.584 45.9652L115.498 45.2934C115.288 45.5316 115.017 45.7365 114.683 45.9081C114.359 46.0796 113.987 46.1654 113.568 46.1654C113.025 46.1654 112.529 46.0272 112.082 45.7508C111.643 45.4649 111.291 45.0647 111.024 44.5501C110.766 44.026 110.638 43.4113 110.638 42.7061C110.638 42.1057 110.743 41.5816 110.952 41.1337C111.162 40.6763 111.438 40.2999 111.781 40.0045C112.134 39.709 112.515 39.4899 112.925 39.3469C113.335 39.1944 113.74 39.1182 114.14 39.1182C114.464 39.1182 114.716 39.142 114.898 39.1897C115.088 39.2278 115.274 39.2802 115.455 39.3469V36.4309H117.499V45.9652H115.584ZM115.455 42.9348V41.1051C115.188 40.9431 114.826 40.8621 114.369 40.8621C113.845 40.8621 113.435 41.0384 113.139 41.391C112.853 41.7436 112.71 42.1963 112.71 42.749C112.71 43.235 112.83 43.6352 113.068 43.9497C113.316 44.2547 113.673 44.4071 114.14 44.4071C114.607 44.4071 114.94 44.2594 115.141 43.964C115.35 43.6591 115.455 43.316 115.455 42.9348Z" fill="black"/>
<path d="M124.51 43.9354L125.353 45.2362C125.258 45.3029 125.086 45.4125 124.838 45.565C124.6 45.7175 124.281 45.8604 123.881 45.9938C123.48 46.1272 122.99 46.1939 122.408 46.1939C121.646 46.1939 120.988 46.0415 120.436 45.7365C119.883 45.4316 119.459 45.0075 119.163 44.4643C118.868 43.9211 118.72 43.2969 118.72 42.5918C118.72 41.9628 118.854 41.3767 119.121 40.8335C119.397 40.2903 119.792 39.8568 120.307 39.5327C120.831 39.1992 121.455 39.0324 122.18 39.0324C122.904 39.0324 123.509 39.1992 123.995 39.5327C124.49 39.8568 124.862 40.3094 125.11 40.8907C125.367 41.4625 125.496 42.1248 125.496 42.8776V43.2207H120.722C120.731 43.5733 120.893 43.8878 121.208 44.1641C121.522 44.4405 121.946 44.5787 122.48 44.5787C123.013 44.5787 123.447 44.5024 123.781 44.35C124.114 44.188 124.357 44.0498 124.51 43.9354ZM120.722 41.9056H123.552C123.552 41.715 123.499 41.5244 123.395 41.3338C123.299 41.1337 123.147 40.9669 122.937 40.8335C122.737 40.7001 122.48 40.6334 122.165 40.6334C121.851 40.6334 121.584 40.7001 121.365 40.8335C121.155 40.9669 120.993 41.1337 120.879 41.3338C120.774 41.5244 120.722 41.715 120.722 41.9056Z" fill="black"/>
<path d="M127.171 43.4065V40.8764H126.113V39.2611H127.171V37.0598H129.229V39.2611H130.959V40.8764H129.229V43.5209C129.229 43.8449 129.291 44.0974 129.415 44.2785C129.548 44.45 129.753 44.5358 130.029 44.5358C130.239 44.5358 130.42 44.5024 130.573 44.4357C130.725 44.3595 130.868 44.2737 131.001 44.1784L131.831 45.4363C131.192 45.9509 130.487 46.2082 129.715 46.2082C129.076 46.2082 128.571 46.0891 128.2 45.8509C127.828 45.6126 127.561 45.2839 127.399 44.8646C127.247 44.4453 127.171 43.9593 127.171 43.4065Z" fill="black"/>
<path d="M132.631 38.2748V36.4309H134.832V38.2748H132.631ZM132.702 45.9652V39.2611H134.76V45.9652H132.702Z" fill="black"/>
</svg>
